<svg xmlns="http://www.w3.org/2000/svg" viewBox="0 0 23.77 21.62"><defs><style>.cls-1{fill:none;stroke:#63c9d9;stroke-miterlimit:10;stroke-width:0.25px;}</style></defs><g id="Layer_2" data-name="Layer 2"><g id="Layer_1-2" data-name="Layer 1"><ellipse class="cls-1" cx="11.95" cy="10.75" rx="6" ry="5.5"/><ellipse class="cls-1" cx="12.04" cy="10.79" rx="5.67" ry="5.2"/><ellipse class="cls-1" cx="12.13" cy="10.83" rx="5.34" ry="4.91"/><ellipse class="cls-1" cx="12.22" cy="10.86" rx="5" ry="4.61"/><ellipse class="cls-1" cx="12.31" cy="10.9" rx="4.67" ry="4.31"/><ellipse class="cls-1" cx="12.4" cy="10.94" rx="4.34" ry="4.02"/><ellipse class="cls-1" cx="12.49" cy="10.97" rx="4.01" ry="3.72"/><ellipse class="cls-1" cx="12.58" cy="11.01" rx="3.67" ry="3.42"/><ellipse class="cls-1" cx="12.67" cy="11.05" rx="3.34" ry="3.13"/><ellipse class="cls-1" cx="12.76" cy="11.08" rx="3.01" ry="2.83"/><ellipse class="cls-1" cx="12.85" cy="11.12" rx="2.68" ry="2.53"/><ellipse class="cls-1" cx="12.94" cy="11.16" rx="2.34" ry="2.24"/><path class="cls-1" d="M12.43,3.18l3.14-1.57C17.25.76,19.28,2,19,3.76l-.66,3.71a1.93,1.93,0,0,0,.62,1.78L21.84,12a2,2,0,0,1-1.31,3.51L16.74,16A2.25,2.25,0,0,0,15,17.19l-1.6,3.1a2.42,2.42,0,0,1-4.19,0l-1.59-3.1A2.27,2.27,0,0,0,5.88,16l-3.8-.53A2,2,0,0,1,.78,12L3.69,9.25a2,2,0,0,0,.62-1.78L3.64,3.76C3.34,2,5.36.76,7.05,1.61l3.13,1.57A2.48,2.48,0,0,0,12.43,3.18Z"/><path class="cls-1" d="M18.88,4l-.19,3.35a7.41,7.41,0,0,0,.67,2L21.61,12a2,2,0,0,1-1.25,3.31L17,16.21a7.26,7.26,0,0,0-1.93,1.27l-1.79,2.57a2.4,2.4,0,0,1-4,0l-1.8-2.59a7.45,7.45,0,0,0-1.91-1.31L2.37,15.3A2,2,0,0,1,1.15,12L3.46,9.26a7.08,7.08,0,0,0,.7-2L4,4c-.2-1.54,1.68-2.72,3.21-2l3,1a7.27,7.27,0,0,0,2.46,0l2.93-1.07C17.19,1.24,19.07,2.43,18.88,4Z"/><path class="cls-1" d="M18.8,4.19l.27,3a6.74,6.74,0,0,1,.73,2.19l1.58,2.67a2,2,0,0,1-1.19,3.12l-2.86,1.24a12.77,12.77,0,0,1-2.13,1.36l-2,2a2.42,2.42,0,0,1-3.74,0l-2-2.08a9.92,9.92,0,0,1-2.07-1.44L2.66,15.12A2,2,0,0,1,1.53,12L3.22,9.28A7.79,7.79,0,0,1,4,7.12l.41-3a2.24,2.24,0,0,1,3-1.91l2.9.51A15.79,15.79,0,0,1,13,2.8l2.73-.56A2.28,2.28,0,0,1,18.8,4.19Z"/><path class="cls-1" d="M18.71,4.41l.74,2.66a3.11,3.11,0,0,1,.79,2.39l.91,2.65A2,2,0,0,1,20,15l-2.4,1.61a4.36,4.36,0,0,1-2.31,1.45l-2.17,1.49a2.51,2.51,0,0,1-3.52,0L7.42,18A4,4,0,0,1,5.17,16.4L3,14.94A2.06,2.06,0,0,1,1.9,12L3,9.3A3.21,3.21,0,0,1,3.88,7l.94-2.62A2.28,2.28,0,0,1,7.66,2.55l2.78,0a5,5,0,0,1,2.88.09l2.54-.05A2.37,2.37,0,0,1,18.71,4.41Z"/><path class="cls-1" d="M18.62,4.63l1.21,2.31a2.33,2.33,0,0,1,.85,2.59l.24,2.62a2.13,2.13,0,0,1-1.06,2.72l-1.95,2a3.05,3.05,0,0,1-2.5,1.54l-2.36.95a2.7,2.7,0,0,1-3.3,0l-2.4-1.06a2.84,2.84,0,0,1-2.41-1.71l-1.7-1.77a2.21,2.21,0,0,1-1-2.79l.47-2.66a2.43,2.43,0,0,1,1-2.53L5.21,4.52A2.43,2.43,0,0,1,7.87,2.86l2.66-.57a3.34,3.34,0,0,1,3.09.12L16,2.87A2.57,2.57,0,0,1,18.62,4.63Z"/><path class="cls-1" d="M18.54,4.85l1.67,2a2.09,2.09,0,0,1,.91,2.8l-.43,2.6a2.44,2.44,0,0,1-1,2.52l-1.48,2.33a2.62,2.62,0,0,1-2.7,1.63L13,19.09a3.16,3.16,0,0,1-3.07,0l-2.6-.54a2.45,2.45,0,0,1-2.58-1.85L3.53,14.58A2.58,2.58,0,0,1,2.66,12L2.52,9.33A2.13,2.13,0,0,1,3.59,6.61l2-1.9A2.77,2.77,0,0,1,8.07,3.18l2.55-1.11a2.8,2.8,0,0,1,3.3.14l2.13,1A3.07,3.07,0,0,1,18.54,4.85Z"/><path class="cls-1" d="M18.45,5.07l2.14,1.6a2,2,0,0,1,1,3l-1.1,2.58a3.3,3.3,0,0,1-.94,2.32l-1,2.69A2.4,2.4,0,0,1,15.61,19l-2.74-.13A4.42,4.42,0,0,1,10,18.8l-2.8,0a2.29,2.29,0,0,1-2.75-2L3.82,14.4A3.65,3.65,0,0,1,3,12L2.28,9.35A2,2,0,0,1,3.44,6.44L6,4.9A3.64,3.64,0,0,1,8.28,3.49L10.7,1.84A2.58,2.58,0,0,1,14.22,2L16.15,3.5A4.39,4.39,0,0,1,18.45,5.07Z"/><path class="cls-1" d="M18.36,5.28,21,6.54a2,2,0,0,1,1,3.2l-1.77,2.55a7.81,7.81,0,0,1-.88,2.13l-.56,3a2.31,2.31,0,0,1-3.08,1.81l-2.93-.67a11.51,11.51,0,0,1-2.62-.06l-3,.49c-1.44.46-3.11-.76-2.91-2.12l-.13-2.7A11,11,0,0,1,3.41,12L2.05,9.36A2,2,0,0,1,3.3,6.27L6.39,5.09A8.23,8.23,0,0,1,8.48,3.8l2.31-2.18a2.45,2.45,0,0,1,3.72.2l1.74,2A14.8,14.8,0,0,1,18.36,5.28Z"/><path class="cls-1" d="M18.28,5.5l3.07.9a2,2,0,0,1,1.08,3.41L20,12.34a7,7,0,0,0-.82,1.93l-.09,3.41a2.28,2.28,0,0,1-3.27,1.89l-3.13-1.2a8.37,8.37,0,0,0-2.4-.06l-3.2,1c-1.6.62-3.43-.71-3.09-2.25l.4-3A5.71,5.71,0,0,0,3.78,12l-2-2.58A2,2,0,0,1,3.15,6.1l3.63-.82A9.73,9.73,0,0,0,8.69,4.12L10.87,1.4a2.42,2.42,0,0,1,3.94.23l1.53,2.5A6.66,6.66,0,0,0,18.28,5.5Z"/><path class="cls-1" d="M18.19,5.72l3.54.55a2,2,0,0,1,1.14,3.61l-3.1,2.5A2,2,0,0,0,19,14.12l.37,3.77a2.29,2.29,0,0,1-3.46,2L12.6,18.13a2.5,2.5,0,0,0-2.17-.07L7,19.56c-1.76.78-3.73-.65-3.25-2.37l.92-3.32A1.94,1.94,0,0,0,4.16,12L1.58,9.4A2,2,0,0,1,3,5.93l4.16-.46a2.34,2.34,0,0,0,1.72-1L11,1.17a2.43,2.43,0,0,1,4.15.26l1.33,3A2.27,2.27,0,0,0,18.19,5.72Z"/></g></g></svg>