<svg xmlns="http://www.w3.org/2000/svg" viewBox="0 0 18.87 15.15"><defs><style>.cls-1{fill:none;stroke:#33c0cc;stroke-miterlimit:10;stroke-width:0.25px;}</style></defs><g id="Layer_2" data-name="Layer 2"><g id="Layer_1-2" data-name="Layer 1"><path class="cls-1" d="M1.82,4.67,6.62.5A1.46,1.46,0,0,1,7.94.17l9.58,2.29a1.71,1.71,0,0,1,1.15,2.18l-2.48,8a1.59,1.59,0,0,1-1.29,1.14L5.84,15a1.45,1.45,0,0,1-1.14-.33L1.93,12.42A5.16,5.16,0,0,1,1.82,4.67Z"/><path class="cls-1" d="M2.48,4.83,7,1A1.39,1.39,0,0,1,8.18.66l8.93,2.13a1.57,1.57,0,0,1,1.06,2l-2.31,7.42a1.48,1.48,0,0,1-1.19,1.06L6.22,14.41a1.4,1.4,0,0,1-1.06-.3L2.58,12A4.77,4.77,0,0,1,2.48,4.83Z"/><path class="cls-1" d="M3.13,5,7.28,1.44a1.28,1.28,0,0,1,1.14-.28l8.27,2a1.44,1.44,0,0,1,1,1.85L15.54,11.8a1.39,1.39,0,0,1-1.11,1l-7.83,1a1.34,1.34,0,0,1-1-.28L3.23,11.6A4.35,4.35,0,0,1,3.13,5Z"/><path class="cls-1" d="M3.79,5.16,7.61,1.91a1.16,1.16,0,0,1,1-.25l7.63,1.78a1.32,1.32,0,0,1,.9,1.7l-2,6.23a1.27,1.27,0,0,1-1,.89L7,13.21a1.18,1.18,0,0,1-.9-.26L3.87,11.19A4,4,0,0,1,3.79,5.16Z"/><path class="cls-1" d="M4.44,5.32,7.93,2.39a1.12,1.12,0,0,1,1-.24l7,1.62a1.19,1.19,0,0,1,.83,1.53l-1.8,5.64a1.13,1.13,0,0,1-.94.8l-6.59.86a1.06,1.06,0,0,1-.82-.23l-2-1.59A3.56,3.56,0,0,1,4.44,5.32Z"/><path class="cls-1" d="M5.1,5.49,8.26,2.86a1,1,0,0,1,.87-.21L15.44,4.1a1.05,1.05,0,0,1,.75,1.37l-1.63,5.05a1,1,0,0,1-.85.71l-6,.77A1,1,0,0,1,7,11.8L5.17,10.37A3.15,3.15,0,0,1,5.1,5.49Z"/><path class="cls-1" d="M5.75,5.65,8.59,3.33a.89.89,0,0,1,.77-.18L15,4.42a.94.94,0,0,1,.67,1.21l-1.46,4.46a.93.93,0,0,1-.76.63l-5.36.68a.89.89,0,0,1-.67-.18L5.82,10A2.76,2.76,0,0,1,5.75,5.65Z"/></g></g></svg>