<svg xmlns="http://www.w3.org/2000/svg" viewBox="0 0 14.25 17.25"><defs><style>.cls-1{fill:none;stroke:#33c0cc;stroke-miterlimit:10;stroke-width:0.25px;}</style></defs><g id="Layer_2" data-name="Layer 2"><g id="Layer_1-2" data-name="Layer 1"><rect class="cls-1" x="0.13" y="5.12" width="8" height="8" rx="2.35"/><rect class="cls-1" x="0.73" y="5.73" width="7" height="7" rx="2.05"/><rect class="cls-1" x="1.33" y="6.33" width="6" height="6" rx="1.76"/><rect class="cls-1" x="1.92" y="6.92" width="5" height="5" rx="1.47"/><rect class="cls-1" x="2.52" y="7.52" width="4" height="4" rx="1.17"/><rect class="cls-1" x="3.13" y="8.12" width="3" height="3" rx="0.88"/><rect class="cls-1" x="5.13" y="0.12" width="8" height="8" rx="2.35"/><rect class="cls-1" x="5.73" y="0.73" width="7" height="7" rx="2.05"/><rect class="cls-1" x="6.33" y="1.33" width="6" height="6" rx="1.76"/><rect class="cls-1" x="6.92" y="1.92" width="5" height="5" rx="1.47"/><rect class="cls-1" x="7.52" y="2.52" width="4" height="4" rx="1.17"/><rect class="cls-1" x="8.13" y="3.13" width="3" height="3" rx="0.88"/><rect class="cls-1" x="6.13" y="9.12" width="8" height="8" rx="2.35"/><rect class="cls-1" x="6.73" y="9.73" width="7" height="7" rx="2.05"/><rect class="cls-1" x="7.33" y="10.33" width="6" height="6" rx="1.76"/><rect class="cls-1" x="7.92" y="10.92" width="5" height="5" rx="1.47"/><rect class="cls-1" x="8.52" y="11.52" width="4" height="4" rx="1.17"/><rect class="cls-1" x="9.13" y="12.13" width="3" height="3" rx="0.88"/></g></g></svg>