<svg xmlns="http://www.w3.org/2000/svg" viewBox="0 0 14.53 13.42"><defs><style>.cls-1,.cls-10,.cls-11,.cls-12,.cls-13,.cls-14,.cls-15,.cls-16,.cls-17,.cls-18,.cls-19,.cls-2,.cls-3,.cls-4,.cls-5,.cls-6,.cls-7,.cls-8,.cls-9{fill:none;stroke:#63c9d9;stroke-miterlimit:10;}.cls-1{stroke-width:0.15px;}.cls-2{stroke-width:0.12px;}.cls-3{stroke-width:0.1px;}.cls-4{stroke-width:0.08px;}.cls-5{stroke-width:0.05px;}.cls-6{stroke-width:0.13px;}.cls-7{stroke-width:0.12px;}.cls-8{stroke-width:0.08px;}.cls-9{stroke-width:0.07px;}.cls-10{stroke-width:0.14px;}.cls-11{stroke-width:0.13px;}.cls-12{stroke-width:0.12px;}.cls-13{stroke-width:0.11px;}.cls-14{stroke-width:0.1px;}.cls-15{stroke-width:0.1px;}.cls-16{stroke-width:0.09px;}.cls-17{stroke-width:0.08px;}.cls-18{stroke-width:0.07px;}.cls-19{stroke-width:0.06px;}</style></defs><g id="Layer_2" data-name="Layer 2"><g id="Layer_1-2" data-name="Layer 1"><polygon class="cls-1" points="14.39 1.73 12 0.2 12.02 3.29 14.39 1.73"/><polygon class="cls-2" points="14.04 1.71 12.05 0.53 12.07 2.92 14.04 1.71"/><polygon class="cls-3" points="13.68 1.7 12.1 0.86 12.11 2.56 13.68 1.7"/><polygon class="cls-4" points="13.33 1.69 12.15 1.19 12.16 2.2 13.33 1.69"/><polygon class="cls-5" points="12.97 1.67 12.21 1.52 12.21 1.83 12.97 1.67"/><polygon class="cls-1" points="11.08 0.26 3.48 10.91 10.18 13.31 11.08 0.26"/><polygon class="cls-6" points="10.54 1.77 3.96 10.88 9.83 12.99 10.54 1.77"/><polygon class="cls-7" points="10 3.28 4.44 10.86 9.47 12.66 10 3.28"/><polygon class="cls-3" points="9.45 4.79 4.92 10.84 9.12 12.34 9.45 4.79"/><polygon class="cls-8" points="8.91 6.3 5.4 10.81 8.76 12.01 8.91 6.3"/><polygon class="cls-9" points="8.37 7.82 5.88 10.79 8.4 11.69 8.37 7.82"/><polygon class="cls-5" points="7.83 9.33 6.36 10.76 8.04 11.37 7.83 9.33"/><polygon class="cls-1" points="0.14 0.44 4.4 8.27 8.93 1.93 0.14 0.44"/><polygon class="cls-10" points="0.5 0.69 4.42 7.92 8.61 2.05 0.5 0.69"/><polygon class="cls-11" points="0.86 0.94 4.44 7.57 8.29 2.17 0.86 0.94"/><polygon class="cls-12" points="1.22 1.19 4.46 7.21 7.97 2.29 1.22 1.19"/><polygon class="cls-13" points="1.57 1.44 4.47 6.86 7.65 2.42 1.57 1.44"/><polygon class="cls-14" points="1.93 1.69 4.49 6.51 7.33 2.54 1.93 1.69"/><polygon class="cls-15" points="2.29 1.94 4.51 6.16 7.01 2.66 2.29 1.94"/><polygon class="cls-16" points="2.65 2.18 4.53 5.8 6.68 2.78 2.65 2.18"/><polygon class="cls-17" points="3.01 2.43 4.55 5.45 6.36 2.9 3.01 2.43"/><polygon class="cls-18" points="3.37 2.68 4.56 5.1 6.04 3.03 3.37 2.68"/><polygon class="cls-19" points="3.73 2.93 4.58 4.75 5.72 3.15 3.73 2.93"/><polygon class="cls-5" points="4.08 3.18 4.6 4.4 5.4 3.27 4.08 3.18"/></g></g></svg>