<svg xmlns="http://www.w3.org/2000/svg" viewBox="0 0 15.99 15.11"><defs><style>.cls-1{fill:none;stroke:#33c0cc;stroke-miterlimit:10;stroke-width:0.25px;}.cls-2{fill:#0bc;}</style></defs><g id="Layer_2" data-name="Layer 2"><g id="Layer_1-2" data-name="Layer 1"><path class="cls-1" d="M.65,6.6c.06-.61,3.05,0,4.7-1.69S6.13.28,6.83.13C7.7-.06,8.4,4.72,12,7c1.83,1.13,3.8.72,3.82,1.18.05.78-5.35.66-7.5,4C7.51,13.43,7.81,15,7.48,15c-.52,0-.1-3.66-2.35-6C3.29,7.15.59,7.17.65,6.6Z"/><path class="cls-1" d="M7.39,3c.51-.1.87,2.72,3,4,1.13.7,2.37.42,2.4.7,0,.46-3.1.42-4.35,2.36-.56.88-.34,1.91-.56,1.92S7.73,9.72,6.32,8.38c-1.13-1.09-2.75-1-2.73-1.33s1.94-.07,3-1.22S7,3,7.39,3Z"/><path class="cls-1" d="M8,5.78c.13,0,.17.84.75,1.2s1,.11,1,.22-.84.17-1.2.75-.12,1-.22,1-.19-.8-.76-1.2c-.42-.3-1-.12-1-.22s.84-.17,1.2-.76C8,6.32,7.85,5.8,8,5.78Z"/><path class="cls-2" d="M13.13,1.43c.14,0,.17.83.76,1.19.43.27.95.12,1,.23S14,3,13.66,3.6s-.11,1-.22,1-.19-.8-.75-1.19-1-.12-1-.23.84-.17,1.2-.75S13,1.44,13.13,1.43Z"/><path class="cls-2" d="M1.42.26c.14,0,.17.84.75,1.2s1,.11,1,.22-.84.17-1.2.75-.12,1-.22,1-.19-.8-.75-1.2S0,2.09,0,2s.84-.17,1.2-.76C1.47.8,1.31.28,1.42.26Z"/></g></g></svg>