<svg xmlns="http://www.w3.org/2000/svg" viewBox="0 0 18.98 11.36"><defs><style>.cls-1,.cls-2,.cls-3,.cls-4,.cls-5,.cls-6,.cls-7,.cls-8,.cls-9{fill:none;stroke:#63c9d9;stroke-miterlimit:10;}.cls-1{stroke-width:0.15px;}.cls-2{stroke-width:0.12px;}.cls-3{stroke-width:0.1px;}.cls-4{stroke-width:0.08px;}.cls-5{stroke-width:0.05px;}.cls-6{stroke-width:0.13px;}.cls-7{stroke-width:0.12px;}.cls-8{stroke-width:0.08px;}.cls-9{stroke-width:0.07px;}</style></defs><g id="Layer_2" data-name="Layer 2"><g id="Layer_1-2" data-name="Layer 1"><polygon class="cls-1" points="0.31 0.31 0.35 6.8 3.31 6.07 0.31 0.31"/><polygon class="cls-2" points="0.52 1.23 0.64 6.6 2.94 6.03 0.52 1.23"/><polygon class="cls-3" points="0.73 2.14 0.93 6.39 2.56 5.99 0.73 2.14"/><polygon class="cls-4" points="0.94 3.06 1.21 6.19 2.18 5.95 0.94 3.06"/><polygon class="cls-5" points="1.16 3.98 1.5 5.98 1.8 5.91 1.16 3.98"/><polygon class="cls-1" points="18.41 1.81 0.1 6.99 1.89 11.26 18.41 1.81"/><polygon class="cls-6" points="16.19 2.74 0.47 7.15 2.04 10.88 16.19 2.74"/><polygon class="cls-7" points="13.97 3.67 0.84 7.31 2.18 10.51 13.97 3.67"/><polygon class="cls-3" points="11.75 4.61 1.21 7.47 2.33 10.13 11.75 4.61"/><polygon class="cls-8" points="9.53 5.54 1.57 7.63 2.47 9.76 9.53 5.54"/><polygon class="cls-9" points="7.3 6.47 1.94 7.78 2.61 9.39 7.3 6.47"/><polygon class="cls-5" points="5.08 7.41 2.31 7.94 2.76 9.01 5.08 7.41"/></g></g></svg>