<svg xmlns="http://www.w3.org/2000/svg" viewBox="0 0 14.33 14.2"><defs><style>.cls-1,.cls-2,.cls-3,.cls-4,.cls-5,.cls-6,.cls-7{fill:none;stroke-miterlimit:10;}.cls-1,.cls-2,.cls-3,.cls-4,.cls-5,.cls-6{stroke:#63c9d9;}.cls-1,.cls-7{stroke-width:0.25px;}.cls-2{stroke-width:0.23px;}.cls-3{stroke-width:0.21px;}.cls-4{stroke-width:0.19px;}.cls-5{stroke-width:0.17px;}.cls-6{stroke-width:0.15px;}.cls-7{stroke:#33c0cc;}</style></defs><g id="Layer_2" data-name="Layer 2"><g id="Layer_1-2" data-name="Layer 1"><ellipse class="cls-1" cx="7.21" cy="7.12" rx="3" ry="2.98" transform="translate(-1.99 11.37) rotate(-69.4)"/><ellipse class="cls-2" cx="7.19" cy="7.5" rx="2.48" ry="2.49" transform="translate(-2.41 11.49) rotate(-68.78)"/><ellipse class="cls-3" cx="7.16" cy="7.88" rx="1.96" ry="2" transform="translate(-2.87 11.46) rotate(-67.36)"/><ellipse class="cls-4" cx="7.13" cy="8.26" rx="1.45" ry="1.51" transform="translate(-3.36 11.27) rotate(-65.17)"/><ellipse class="cls-5" cx="7.11" cy="8.64" rx="0.96" ry="1.04" transform="translate(-3.9 10.64) rotate(-60.85)"/><ellipse class="cls-6" cx="7.08" cy="9.02" rx="0.53" ry="0.63" transform="translate(-4.38 8.56) rotate(-49.6)"/><path class="cls-7" d="M7.9.64l.62,1.72a.78.78,0,0,0,1.07.44L11.25,2a.77.77,0,0,1,1,1L11.5,4.7a.77.77,0,0,0,.44,1.06l1.74.61a.77.77,0,0,1,0,1.46l-1.74.61A.77.77,0,0,0,11.5,9.5l.79,1.65a.78.78,0,0,1-1,1L9.59,11.4a.78.78,0,0,0-1.07.44L7.9,13.56a.78.78,0,0,1-1.47,0l-.62-1.72a.78.78,0,0,0-1.07-.44l-1.67.79a.78.78,0,0,1-1-1l.8-1.65a.78.78,0,0,0-.45-1.06L.64,7.83a.77.77,0,0,1,0-1.46l1.74-.61A.78.78,0,0,0,2.83,4.7L2,3.05a.78.78,0,0,1,1-1l1.67.78a.78.78,0,0,0,1.07-.44L6.43.64A.78.78,0,0,1,7.9.64Z"/><path class="cls-7" d="M11.12,1.85c.44-.21.75.83.62,1.29-.05.15-.43,1.39-.28,1.39-.13.28.61.67.91.72s1.51.72,1.32.87c.46.17-.06,1.12-.49,1.35-.13.07-1.29.68-1.18.79-.3.1,0,.9.13,1.15s.55,1.56.3,1.53c.22.44-.83.75-1.3.62-.15-.05-1.4-.43-1.4-.28-.28-.13-.67.61-.73.91s-.72,1.49-.87,1.3C8,14,7,13.43,6.79,13c-.08-.14-.69-1.28-.8-1.18-.1-.29-.9,0-1.16.13s-1.58.55-1.55.31c-.44.21-.75-.83-.62-1.29,0-.15.43-1.39.28-1.39.13-.28-.61-.67-.91-.72S.52,8.15.72,8c-.47-.16.05-1.12.48-1.35.13-.07,1.29-.68,1.19-.79.29-.1,0-.9-.13-1.15S1.7,3.15,2,3.18c-.21-.44.83-.75,1.3-.62.15,0,1.4.43,1.4.28.28.13.67-.6.73-.9S6.1.44,6.25.63c.17-.45,1.13.06,1.36.48.08.14.69,1.28.8,1.18.1.29.9,0,1.16-.13S11.15,1.61,11.12,1.85Z"/><path class="cls-7" d="M11,1.69c.22-.11.27,1.32.2,1.55s-.07,1.12.24,1.13c-.06.14,1.23.35,1.38.38.48.09,1.27.83.89,1.12.23.09-.76,1.12-1,1.24s-.85.75-.63,1c-.15.05.61,1.11.7,1.23.28.4.31,1.48-.17,1.42.1.22-1.34.26-1.57.2s-1.13-.07-1.14.24c-.14-.07-.35,1.21-.38,1.36-.09.48-.83,1.27-1.14.88-.08.23-1.13-.74-1.24-1s-.76-.84-1-.62c0-.15-1.12.61-1.24.69-.41.28-1.5.31-1.44-.17-.22.11-.26-1.32-.19-1.55s.06-1.12-.25-1.13c.07-.14-1.22-.35-1.37-.38C1.19,9.2.4,8.46.79,8.17c-.23-.09.75-1.12,1-1.24s.84-.75.63-1c.14,0-.62-1.11-.71-1.23-.27-.4-.31-1.48.18-1.42-.11-.22,1.33-.26,1.57-.2s1.13.07,1.13-.24c.14.07.36-1.21.39-1.36C5,1,5.78.24,6.08.63c.08-.23,1.13.74,1.25,1s.75.84,1,.62c0,.15,1.11-.61,1.24-.69C10,1.24,11,1.21,11,1.69Z"/><path class="cls-7" d="M10.85,1.52l-.23,1.82a.79.79,0,0,0,.76.87l1.85,0a.78.78,0,0,1,.46,1.39L12.24,6.75a.77.77,0,0,0-.08,1.15l1.28,1.32a.77.77,0,0,1-.66,1.3L11,10.3a.78.78,0,0,0-.88.75l0,1.83a.79.79,0,0,1-1.4.46L7.5,11.9a.78.78,0,0,0-1.15-.08L5,13.09a.79.79,0,0,1-1.32-.66l.23-1.81a.78.78,0,0,0-.76-.87l-1.85,0A.78.78,0,0,1,.86,8.33L2.31,7.21a.77.77,0,0,0,.08-1.15L1.11,4.74a.77.77,0,0,1,.66-1.3l1.83.22a.78.78,0,0,0,.88-.75l0-1.83A.79.79,0,0,1,5.91.62L7.05,2.06a.78.78,0,0,0,1.15.08L9.53.87A.78.78,0,0,1,10.85,1.52Z"/></g></g></svg>