<svg xmlns="http://www.w3.org/2000/svg" viewBox="0 0 19.25 25"><defs><style>.cls-1,.cls-2,.cls-3,.cls-4,.cls-5,.cls-6,.cls-7,.cls-8{fill:none;stroke:#33c0cc;stroke-miterlimit:10;}.cls-2{stroke-width:0.89px;}.cls-3{stroke-width:0.79px;}.cls-4{stroke-width:0.68px;}.cls-5{stroke-width:0.57px;}.cls-6{stroke-width:0.46px;}.cls-7{stroke-width:0.36px;}.cls-8{stroke-width:0.25px;}</style></defs><g id="Layer_2" data-name="Layer 2"><g id="Layer_1-2" data-name="Layer 1"><path class="cls-1" d="M18.58,3c0-1.38-4-2.5-9-2.5S.58,1.62.58,3a.84.84,0,0,0,.19.5H.58v18H.77a.84.84,0,0,0-.19.5c0,1.38,4,2.5,9,2.5s9-1.12,9-2.5a.83.83,0,0,0-.18-.5h.18V3.5H18.4A.83.83,0,0,0,18.58,3Z"/><path class="cls-2" d="M17.73,3.91c0-1.25-3.63-2.27-8.11-2.27s-8.11,1-8.11,2.27a.71.71,0,0,0,.16.45H1.51V20.69h.16a.73.73,0,0,0-.16.45c0,1.25,3.63,2.27,8.11,2.27s8.11-1,8.11-2.27a.8.8,0,0,0-.16-.45h.16V4.36h-.16A.77.77,0,0,0,17.73,3.91Z"/><path class="cls-3" d="M16.87,4.82c0-1.12-3.23-2-7.22-2s-7.22.91-7.22,2a.67.67,0,0,0,.15.41H2.43V19.87h.15a.69.69,0,0,0-.15.41c0,1.12,3.23,2,7.22,2s7.22-.92,7.22-2a.75.75,0,0,0-.14-.41h.14V5.23h-.14A.72.72,0,0,0,16.87,4.82Z"/><path class="cls-4" d="M16,5.73c0-1-2.83-1.8-6.33-1.8s-6.33.81-6.33,1.8a.66.66,0,0,0,.13.36H3.35v13h.13a.66.66,0,0,0-.13.36c0,1,2.84,1.8,6.33,1.8s6.33-.8,6.33-1.8a.65.65,0,0,0-.12-.36H16v-13h-.12A.65.65,0,0,0,16,5.73Z"/><path class="cls-5" d="M15.16,6.64c0-.87-2.44-1.57-5.44-1.57s-5.44.7-5.44,1.57A.47.47,0,0,0,4.39,7H4.28v11.3h.11a.47.47,0,0,0-.11.31c0,.87,2.43,1.57,5.44,1.57s5.44-.7,5.44-1.57a.53.53,0,0,0-.11-.31h.11V7h-.11A.53.53,0,0,0,15.16,6.64Z"/><path class="cls-6" d="M14.3,7.55c0-.74-2-1.34-4.55-1.34S5.2,6.81,5.2,7.55a.48.48,0,0,0,.09.27H5.2v9.62h.09a.43.43,0,0,0-.09.26c0,.74,2,1.34,4.55,1.34s4.55-.6,4.55-1.34a.43.43,0,0,0-.09-.26h.09V7.82h-.09A.48.48,0,0,0,14.3,7.55Z"/><path class="cls-7" d="M13.44,8.46c0-.61-1.64-1.1-3.66-1.1s-3.66.49-3.66,1.1a.37.37,0,0,0,.08.22H6.12v7.94H6.2a.4.4,0,0,0-.08.22c0,.61,1.64,1.11,3.66,1.11s3.66-.5,3.66-1.11a.38.38,0,0,0-.07-.22h.07V8.68h-.07A.36.36,0,0,0,13.44,8.46Z"/><path class="cls-8" d="M12.58,9.37c0-.48-1.24-.87-2.77-.87S7,8.89,7,9.37a.27.27,0,0,0,.06.17H7v6.27H7.1A.29.29,0,0,0,7,16c0,.48,1.25.87,2.77.87s2.77-.39,2.77-.87a.28.28,0,0,0-.05-.17h.05V9.54h-.05A.26.26,0,0,0,12.58,9.37Z"/><ellipse class="cls-8" cx="9.13" cy="3.65" rx="9" ry="2.5"/><ellipse class="cls-8" cx="9.13" cy="3.56" rx="8" ry="2.25"/><ellipse class="cls-8" cx="9.13" cy="3.48" rx="7" ry="2"/><ellipse class="cls-8" cx="9.13" cy="3.4" rx="6" ry="1.75"/><ellipse class="cls-8" cx="9.13" cy="3.31" rx="5" ry="1.5"/><ellipse class="cls-8" cx="9.13" cy="3.23" rx="4" ry="1.25"/><ellipse class="cls-8" cx="9.13" cy="3.15" rx="3" ry="1"/><ellipse class="cls-8" cx="10.13" cy="19.65" rx="9" ry="2.5"/><ellipse class="cls-8" cx="10.13" cy="19.56" rx="8" ry="2.25"/><ellipse class="cls-8" cx="10.13" cy="19.48" rx="7" ry="2"/><ellipse class="cls-8" cx="10.13" cy="19.4" rx="6" ry="1.75"/><ellipse class="cls-8" cx="10.13" cy="19.31" rx="5" ry="1.5"/><ellipse class="cls-8" cx="10.13" cy="19.23" rx="4" ry="1.25"/><ellipse class="cls-8" cx="10.13" cy="19.15" rx="3" ry="1"/></g></g></svg>