<svg xmlns="http://www.w3.org/2000/svg" viewBox="0 0 19.25 22.29"><defs><style>.cls-1,.cls-10,.cls-11,.cls-12,.cls-13,.cls-15,.cls-16,.cls-17,.cls-18,.cls-19,.cls-2,.cls-20,.cls-21,.cls-22,.cls-23,.cls-24,.cls-3,.cls-4,.cls-5,.cls-6,.cls-7,.cls-8,.cls-9{fill:none;stroke:#63c9d9;stroke-miterlimit:10;}.cls-1{stroke-width:0.15px;}.cls-2{stroke-width:0.14px;}.cls-3{stroke-width:0.13px;}.cls-4{stroke-width:0.12px;}.cls-5{stroke-width:0.11px;}.cls-6{stroke-width:0.1px;}.cls-7{stroke-width:0.1px;}.cls-8{stroke-width:0.09px;}.cls-9{stroke-width:0.08px;}.cls-10{stroke-width:0.07px;}.cls-11{stroke-width:0.06px;}.cls-12{stroke-width:0.05px;}.cls-13{stroke-width:0.25px;}.cls-14{fill:#63c9d9;}.cls-15{stroke-width:0.23px;}.cls-16{stroke-width:0.2px;}.cls-17{stroke-width:0.18px;}.cls-18{stroke-width:0.16px;}.cls-19{stroke-width:0.14px;}.cls-20{stroke-width:0.11px;}.cls-21{stroke-width:0.09px;}.cls-22{stroke-width:0.07px;}.cls-23{stroke-width:0.05px;}.cls-24{stroke-width:0.02px;}</style></defs><g id="Layer_2" data-name="Layer 2"><g id="Layer_1-2" data-name="Layer 1"><polygon class="cls-1" points="6.47 0.13 7.44 12.07 17.06 5.73 6.47 0.13"/><polygon class="cls-2" points="6.79 0.6 7.67 11.62 16.57 5.76 6.79 0.6"/><polygon class="cls-3" points="7.11 1.08 7.9 11.17 16.08 5.78 7.11 1.08"/><polygon class="cls-4" points="7.43 1.55 8.13 10.72 15.59 5.81 7.43 1.55"/><polygon class="cls-5" points="7.76 2.02 8.36 10.27 15.1 5.83 7.76 2.02"/><polygon class="cls-6" points="8.08 2.49 8.59 9.82 14.61 5.86 8.08 2.49"/><polygon class="cls-7" points="8.4 2.97 8.82 9.37 14.12 5.88 8.4 2.97"/><polygon class="cls-8" points="8.72 3.44 9.05 8.92 13.63 5.9 8.72 3.44"/><polygon class="cls-9" points="9.04 3.91 9.28 8.47 13.14 5.93 9.04 3.91"/><polygon class="cls-10" points="9.36 4.38 9.51 8.02 12.65 5.95 9.36 4.38"/><polygon class="cls-11" points="9.69 4.86 9.74 7.58 12.16 5.98 9.69 4.86"/><polygon class="cls-12" points="10.01 5.33 9.97 7.13 11.67 6 10.01 5.33"/><path class="cls-13" d="M8.73,14.11l7.69-5a8.56,8.56,0,0,0-7.69-5,8.82,8.82,0,0,0-8.61,9,8.82,8.82,0,0,0,8.61,9,8.7,8.7,0,0,0,8.39-7Z"/><path class="cls-14" d="M8.61,4.87a8.39,8.39,0,0,0-7.9,10c.89,4.94,6.16,8.21,10.91,6.27a8.15,8.15,0,0,0,4.79-5.93.08.08,0,0,0-.07-.1c-2.05-.28-4.12-.51-6.17-.81l-.87-.12a5.35,5.35,0,0,0-.56-.07c-.13,0-.13.13,0,.06.54-.29,1.06-.67,1.57-1l2.8-1.81c.88-.56,1.82-1.09,2.66-1.72,0,0,.05-.06,0-.1A8.23,8.23,0,0,0,8.61,4.87a.07.07,0,0,0,0,.15,8,8,0,0,1,6.68,3.89l.38.57c0,.06-.23.16-.28.19l-.78.51L13.4,11c-1.61,1-3.25,2-4.83,3.12a.08.08,0,0,0,0,.14c1.18.23,2.41.33,3.6.49l2.85.36.75.1h.12c.43.06.36.06.23.51a7.85,7.85,0,0,1-8.78,5.75A8.29,8.29,0,0,1,.72,13.59,8.2,8.2,0,0,1,8.61,5,.07.07,0,1,0,8.61,4.87Z"/><path class="cls-15" d="M8.61,5a7.62,7.62,0,0,0-3.26.72A8,8,0,0,0,3.61,6.79a8.29,8.29,0,0,0-2,2.46,8.65,8.65,0,0,0-1,4.06,8.43,8.43,0,0,0,1.95,5.4,8.57,8.57,0,0,0,1.46,1.36c.2.15.42.3.63.43A7.62,7.62,0,0,0,8.6,21.62,7.68,7.68,0,0,0,13.45,20a8.17,8.17,0,0,0,2.23-2.8c.1-.21.2-.44.28-.66a7.75,7.75,0,0,0,.38-1.33l-.49-.07s-5.51-.7-5.54-.72l-1.7-.23L10.32,13s2.89-1.88,2.91-1.88l1.27-.81,1.22-.81A8.18,8.18,0,0,0,11,5.34,7.62,7.62,0,0,0,8.61,5Z"/><path class="cls-14" d="M8.49,5.65a7.75,7.75,0,0,0-7.27,9.21,7.6,7.6,0,0,0,10,5.78,7.23,7.23,0,0,0,4.39-5.44.08.08,0,0,0-.05-.09c-1.89-.28-3.8-.47-5.68-.81-.28-.05-.56-.08-.85-.12a1.76,1.76,0,0,0-.41-.06c-.16,0-.1.1-.06.07.47-.33,1-.63,1.46-.95.85-.56,1.71-1.12,2.57-1.66A20.46,20.46,0,0,0,15.08,10a.12.12,0,0,0,0-.1,7.68,7.68,0,0,0-6.6-4.23.08.08,0,0,0,0,.15,7.47,7.47,0,0,1,6,3.36c.09.14.34.42.35.59s0,.13-.17.32a5.58,5.58,0,0,1-.74.49l-1.1.69c-1.46.93-3,1.83-4.39,2.85a.08.08,0,0,0,0,.14,25.42,25.42,0,0,0,3.39.51l2.56.35.64.09c.46.06.38.26.26.71a7.05,7.05,0,0,1-8.1,5,7.68,7.68,0,0,1-6-7.14A7.54,7.54,0,0,1,8.49,5.8.07.07,0,1,0,8.49,5.65Z"/><path class="cls-16" d="M8.49,5.73a6.87,6.87,0,0,0-3,.67,7.35,7.35,0,0,0-1.61,1,7.42,7.42,0,0,0-1.8,2.28,7.86,7.86,0,0,0-.92,3.75A7.59,7.59,0,0,0,3,18.38a8.76,8.76,0,0,0,1.34,1.24l.58.4a6.81,6.81,0,0,0,3.57,1,7.13,7.13,0,0,0,3-.59,7,7,0,0,0,1.48-.88A7.2,7.2,0,0,0,15,17c.09-.2.18-.4.26-.61a7.3,7.3,0,0,0,.32-1.22l-.45-.06c-.06,0-5-.67-5.08-.72s-1.55-.22-1.54-.24l1.57-1s2.64-1.72,2.68-1.73l1.16-.74S15,9.94,15,9.92a7.64,7.64,0,0,0-4.34-3.83A6.93,6.93,0,0,0,8.49,5.73Z"/><path class="cls-14" d="M8.37,6.43a7,7,0,1,0,2.71,13.65,6.29,6.29,0,0,0,3.76-4.85s0-.09-.05-.09c-1.69-.28-3.4-.43-5.07-.79L9,14.22a2.38,2.38,0,0,0-.37-.06c-.3,0-.08,0-.16.06a7,7,0,0,1,1.32-.86c.77-.52,1.55-1,2.34-1.52a13.13,13.13,0,0,0,2.26-1.48.07.07,0,0,0,0-.09,7.1,7.1,0,0,0-6-3.84.08.08,0,0,0,0,.15,6.85,6.85,0,0,1,5.46,3.05,2.46,2.46,0,0,1,.33.53c.05.25,0,.09-.1.25a3.17,3.17,0,0,1-.71.48l-1,.65a45.78,45.78,0,0,0-4,2.6c-.05,0,0,.1,0,.12a8.33,8.33,0,0,0,1.44.27c.58.12,1.17.19,1.75.28.76.11,1.52.21,2.28.33l.5.08a1.35,1.35,0,0,1,.29,0c.16.1,0,.58-.1.81a6.28,6.28,0,0,1-7.42,4.21,7,7,0,0,1-5.33-6.56A6.87,6.87,0,0,1,8.37,6.58.08.08,0,0,0,8.37,6.43Z"/><path class="cls-17" d="M8.37,6.51a6.22,6.22,0,0,0-2.75.61,6.85,6.85,0,0,0-1.47,1,7,7,0,0,0-1.64,2.1,7.35,7.35,0,0,0-.83,3.44,6.78,6.78,0,0,0,1.68,4.44,8.07,8.07,0,0,0,1.23,1.11l.52.37a6.29,6.29,0,0,0,3.23,1,6.49,6.49,0,0,0,2.72-.5,5.72,5.72,0,0,0,1.36-.78,6.32,6.32,0,0,0,1.86-2.35c.08-.19.16-.38.23-.57a6.06,6.06,0,0,0,.26-1.1l-.41-.06c-.09,0-4.54-.64-4.61-.71s-1.4-.23-1.38-.25,1.4-.91,1.43-.94,2.38-1.56,2.45-1.58L13.31,11s1-.66,1-.69a7,7,0,0,0-4-3.46A6.19,6.19,0,0,0,8.37,6.51Z"/><path class="cls-14" d="M8.25,7.21a6.4,6.4,0,1,0,2.54,12.37,5.42,5.42,0,0,0,3.27-4.34.07.07,0,0,0-.05-.08c-1.52-.28-3.09-.39-4.58-.78-.21-.06-.43-.09-.64-.13s-.25-.06-.37-.07-.1.07,0,0l1.18-.77c.69-.46,1.39-.93,2.1-1.37.34-.21.69-.41,1-.63a4.28,4.28,0,0,0,1-.69.07.07,0,0,0,0-.09A6.56,6.56,0,0,0,8.25,7.21a.08.08,0,0,0,0,.15,6.35,6.35,0,0,1,5,2.79,3.34,3.34,0,0,1,.35.51c0,.06-.23.17-.26.19l-.55.37-1,.61c-.66.4-1.31.82-2,1.25s-1.13.68-1.63,1.08a.08.08,0,0,0,0,.12,5.24,5.24,0,0,0,1.26.28c.51.13,1,.2,1.54.28l2.08.32.48.08a1.86,1.86,0,0,1,.27,0c.15.1-.06.68-.13.92A5.56,5.56,0,0,1,6.9,19.68a6.43,6.43,0,0,1-4.62-6,6.2,6.2,0,0,1,6-6.28A.07.07,0,1,0,8.25,7.21Z"/><path class="cls-18" d="M8.25,7.29a5.55,5.55,0,0,0-2.5.56,5.87,5.87,0,0,0-1.33.87,6.33,6.33,0,0,0-1.48,1.91,6.8,6.8,0,0,0-.74,3.12,6.06,6.06,0,0,0,1.55,4,8.65,8.65,0,0,0,1.11,1c.16.11.31.23.47.33A5.58,5.58,0,0,0,8.21,20a5.93,5.93,0,0,0,2.46-.41,5.31,5.31,0,0,0,1.24-.67,5.61,5.61,0,0,0,1.67-2.14c.07-.17.14-.34.2-.51a5,5,0,0,0,.21-1l-.37-.06c-.13-.06-4.06-.61-4.16-.71s-1.24-.23-1.22-.25,1.25-.82,1.3-.86,2.13-1.4,2.21-1.43l1-.6s.91-.59.91-.63A6.55,6.55,0,0,0,10,7.61,5.55,5.55,0,0,0,8.25,7.29Z"/><path class="cls-14" d="M8.13,8a5.74,5.74,0,0,0-5.38,6.84,5.88,5.88,0,0,0,7.63,4.3,4.56,4.56,0,0,0,2.9-3.87.09.09,0,0,0-.06-.07,40.09,40.09,0,0,1-4.1-.79,4.89,4.89,0,0,0-.64-.14,1.1,1.1,0,0,1-.26-.06c-.08,0,0,.05,0,.07a.44.44,0,0,1,.11-.08,7.45,7.45,0,0,0,1-.65c.63-.44,1.27-.87,1.93-1.26.3-.18.61-.35.9-.54a3.05,3.05,0,0,0,.84-.62s0,0,0-.07A6,6,0,0,0,8.13,8a.08.08,0,0,0,0,.15,5.77,5.77,0,0,1,4.36,2.4c.08.11.27.31.28.44s0,.13-.13.25l-.49.33c-.27.18-.55.35-.83.51-.61.36-1.19.74-1.77,1.13a13.62,13.62,0,0,0-1.48,1,.08.08,0,0,0,0,.11c.23.2.82.2,1.12.3a10.84,10.84,0,0,0,1.4.28l1.84.31.42.09c.06,0,.26,0,.29.05s-.16.78-.21.94a4.84,4.84,0,0,1-6.18,2.81A5.8,5.8,0,0,1,2.8,13.7,5.54,5.54,0,0,1,8.13,8.14.08.08,0,0,0,8.13,8Z"/><path class="cls-19" d="M8.13,8.07a4.88,4.88,0,0,0-2.24.51,4.76,4.76,0,0,0-1.2.78,5.58,5.58,0,0,0-1.31,1.73,5.91,5.91,0,0,0-.66,2.81,5.23,5.23,0,0,0,1.42,3.5,9.15,9.15,0,0,0,1,.85l.4.31a4.94,4.94,0,0,0,2.54.85,5.37,5.37,0,0,0,2.2-.32,4.55,4.55,0,0,0,1.12-.57,4.78,4.78,0,0,0,1.48-1.92c.06-.15.12-.31.17-.46a3.86,3.86,0,0,0,.15-.88l-.33,0c-.16-.07-3.57-.58-3.69-.7s-1.08-.23-1.06-.27,1.1-.71,1.16-.76,1.87-1.25,2-1.29.83-.5.87-.52.8-.54.8-.58A6,6,0,0,0,9.71,8.36,5.2,5.2,0,0,0,8.13,8.07Z"/><path class="cls-14" d="M8,8.77a5.09,5.09,0,0,0-4.75,6.09A5.3,5.3,0,0,0,5.6,18.05a4.73,4.73,0,0,0,4.38.63,3.73,3.73,0,0,0,2.51-3.39s0-.07-.05-.07a25.79,25.79,0,0,1-3.61-.79,4.41,4.41,0,0,0-.55-.15.6.6,0,0,1-.22-.06c.09.08,0,.06.16,0a7.66,7.66,0,0,0,.84-.56c.55-.38,1.1-.76,1.67-1.09.28-.16.56-.32.83-.49a2.23,2.23,0,0,0,.73-.56s0,0,0-.07A5.45,5.45,0,0,0,8,8.77a.08.08,0,0,0,0,.15,5.21,5.21,0,0,1,3.72,2c.09.11.33.35.35.49s.05.1-.14.24l-.4.28-.77.47c-.53.3-1,.65-1.56,1A10,10,0,0,0,8,14.22s0,.07,0,.11.33.11.44.13.36.12.54.18a7.2,7.2,0,0,0,1.28.3c.54.1,1.09.19,1.62.3a1.77,1.77,0,0,1,.33.08c.19.07.2,0,.17.27a3.19,3.19,0,0,1-.28,1,3.57,3.57,0,0,1-2.18,2,4.75,4.75,0,0,1-3.44-.17,6.6,6.6,0,0,1-2.32-1.91,4.54,4.54,0,0,1-.79-2.79A4.87,4.87,0,0,1,8,8.92.07.07,0,0,0,8,8.77Z"/><path class="cls-20" d="M8,8.85A4.37,4.37,0,0,0,6,9.3,5,5,0,0,0,5,10a5.05,5.05,0,0,0-1.15,1.55,5.38,5.38,0,0,0-.57,2.5,4.43,4.43,0,0,0,1.28,3,9.1,9.1,0,0,0,.89.73l.34.27a4.27,4.27,0,0,0,2.2.79,4.85,4.85,0,0,0,1.94-.23,3.74,3.74,0,0,0,1-.47,3.93,3.93,0,0,0,1.3-1.7,2.83,2.83,0,0,0,.14-.41,2.89,2.89,0,0,0,.1-.76l-.29,0c-.19-.09-3.09-.55-3.23-.7S8,14.31,8,14.27s.95-.62,1-.68,1.62-1.09,1.74-1.13l.77-.46a4.76,4.76,0,0,0,.7-.53A5.57,5.57,0,0,0,9.39,9.12,4.28,4.28,0,0,0,8,8.85Z"/><path class="cls-14" d="M7.89,9.55a4.42,4.42,0,0,0-4.13,5.27,3.73,3.73,0,0,0,.68,1.52,7.67,7.67,0,0,0,1.48,1.3,4.16,4.16,0,0,0,3.73.57,3,3,0,0,0,2.06-2.89s0-.07-.06-.07c-.75-.19-1.52-.33-2.28-.51a4.56,4.56,0,0,1-.81-.28A2.81,2.81,0,0,0,8,14.28c-.06,0-.08.1,0,0a.32.32,0,0,1,.12-.08A3.62,3.62,0,0,1,8.41,14c.62-.4,1.2-.85,1.85-1.21.26-.15.53-.29.78-.46s.58-.31.55-.53-.19-.27-.24-.34-.28-.34-.44-.5a5.46,5.46,0,0,0-.79-.65,4.71,4.71,0,0,0-2.23-.78.08.08,0,0,0,0,.15A4.68,4.68,0,0,1,11,11.28c.12.14.47.46.4.62s-.31.25-.42.32-.43.26-.65.38c-.47.26-.91.56-1.35.86a8.36,8.36,0,0,0-1.15.79s0,.05,0,.07c.08.18.62.26.79.33a5.28,5.28,0,0,0,1.05.3l1.42.31a2.25,2.25,0,0,1,.35.09c.17.05.17,0,.16.22a2.47,2.47,0,0,1-.21.84A2.79,2.79,0,0,1,9.48,18.1a4.15,4.15,0,0,1-2.88-.21,6.2,6.2,0,0,1-1-.7,5.7,5.7,0,0,1-1-.86,3.65,3.65,0,0,1-.78-2.45A4.21,4.21,0,0,1,7.89,9.7C8,9.71,8,9.56,7.89,9.55Z"/><path class="cls-21" d="M7.89,9.63a3.59,3.59,0,0,0-1.74.4,4.09,4.09,0,0,0-.92.61,4.37,4.37,0,0,0-1,1.37,4.74,4.74,0,0,0-.48,2.18,3.67,3.67,0,0,0,1.15,2.56c.24.21.51.39.77.59.1.08.19.17.29.24a3.49,3.49,0,0,0,1.84.73,4.51,4.51,0,0,0,1.69-.14,2.89,2.89,0,0,0,.87-.37,3.12,3.12,0,0,0,1.11-1.48c0-.12.09-.23.12-.35a2.06,2.06,0,0,0,0-.65l-.25-.05c-.22-.1-2.6-.52-2.77-.7s-.77-.23-.73-.27.79-.53.87-.6,1.37-.93,1.52-1,.62-.36.67-.39a2.77,2.77,0,0,0,.59-.47,5.05,5.05,0,0,0-2.46-2A4,4,0,0,0,7.89,9.63Z"/><path class="cls-14" d="M7.77,10.33c-2.28-.07-4,2.42-3.49,4.56a3,3,0,0,0,.65,1.29,12.13,12.13,0,0,0,1.24,1,3.56,3.56,0,0,0,3.07.57,2.24,2.24,0,0,0,1.68-2.44s0,0-.05-.05c-.63-.18-1.27-.31-1.9-.49a4.57,4.57,0,0,1-.75-.32A.9.9,0,0,0,8,14.38a.21.21,0,0,0-.1,0c-.12,0,0-.08-.09,0,.06-.11.35-.23.46-.3a17.42,17.42,0,0,1,1.52-1,6,6,0,0,0,.7-.4c.2-.15.49-.28.32-.53a4.3,4.3,0,0,0-3.05-1.79.08.08,0,0,0,0,.15,4.24,4.24,0,0,1,2.83,1.6c.1.12.14.13.07.24a.62.62,0,0,1-.22.17,2.4,2.4,0,0,1-.26.18c-.2.11-.41.21-.61.33-.47.27-.9.61-1.35.91-.11.07-.51.24-.54.39s.26.21.36.25.36.2.56.27a9.46,9.46,0,0,0,.91.26l.9.22.22.07c.13,0,.12,0,.16.13a1.07,1.07,0,0,1-.06.56,2.35,2.35,0,0,1-1,1.35A3.43,3.43,0,0,1,8,17.72a3.1,3.1,0,0,1-1.61-.54c-.18-.13-.33-.29-.5-.43a8.22,8.22,0,0,1-.67-.49,3.15,3.15,0,0,1-.58-3.54,3.34,3.34,0,0,1,3.12-2.24C7.87,10.49,7.87,10.34,7.77,10.33Z"/><path class="cls-22" d="M7.77,10.41a3.08,3.08,0,0,0-1.49.34,3.83,3.83,0,0,0-.78.53,3.52,3.52,0,0,0-.82,1.19,4,4,0,0,0-.4,1.87,2.86,2.86,0,0,0,1,2.08c.2.16.44.29.65.47l.23.21a3,3,0,0,0,1.5.66,4,4,0,0,0,1.43-.05,2.12,2.12,0,0,0,.75-.27,2.47,2.47,0,0,0,.92-1.26c0-.1.07-.2.09-.3a1.61,1.61,0,0,0,0-.54l-.21-.05a18.23,18.23,0,0,1-2.31-.68c-.1-.11-.61-.23-.58-.28s.65-.43.74-.52A13.32,13.32,0,0,1,9.77,13l.58-.32c.06,0,.48-.34.48-.41a4.73,4.73,0,0,0-2.09-1.62A3.12,3.12,0,0,0,7.77,10.41Z"/><path class="cls-14" d="M7.65,11.11c-1.84-.09-3.22,2-2.88,3.68a2.24,2.24,0,0,0,.51,1.05c.28.32.7.46,1,.77a2.89,2.89,0,0,0,2.48.71,1.4,1.4,0,0,0,1-.48,2.19,2.19,0,0,0,.46-1,.68.68,0,0,0-.06-.42c-.05-.1-.09-.09-.2-.13L9.23,15a5.89,5.89,0,0,1-.92-.32c-.09,0-.61-.38-.61-.32s.34-.24.4-.27l.26-.2a6.61,6.61,0,0,1,.78-.52c.22-.13,1.23-.5,1-.85A3.52,3.52,0,0,0,9,11.61a3.53,3.53,0,0,0-1.38-.5c-.09,0-.09.14,0,.15a3.9,3.9,0,0,1,2.27,1.25c.14.15.09.19-.05.31A2,2,0,0,1,9.6,13L9,13.3c-.43.25-.82.56-1.24.84-.07.06-.25.13-.22.25s.09.09.13.12.24.14.35.23a4.66,4.66,0,0,0,1.32.49l.51.17c.17,0,.19.09.2.3a1.61,1.61,0,0,1-.23.71,1.25,1.25,0,0,1-.93.74,3.29,3.29,0,0,1-1.62-.09,2.31,2.31,0,0,1-1-.62c-.28-.27-.66-.39-.93-.68a2.62,2.62,0,0,1-.19-2.89,2.62,2.62,0,0,1,2.43-1.61C7.75,11.27,7.75,11.12,7.65,11.11Z"/><path class="cls-23" d="M7.65,11.19a2.28,2.28,0,0,0-1.23.29,2.69,2.69,0,0,0-.65.45,2.91,2.91,0,0,0-.66,1,3.37,3.37,0,0,0-.31,1.57,2.12,2.12,0,0,0,.88,1.6,3.84,3.84,0,0,1,.54.35,1.45,1.45,0,0,1,.18.17,2.21,2.21,0,0,0,1.15.6,3.8,3.8,0,0,0,1.16.05,2,2,0,0,0,.63-.17A1.79,1.79,0,0,0,10.08,16a1.83,1.83,0,0,0,.06-.25.83.83,0,0,0-.08-.42l-.17,0a10.88,10.88,0,0,1-1.84-.68c-.11-.12-.46-.23-.42-.29s.5-.33.6-.42a7.31,7.31,0,0,1,1-.69L9.76,13c.07,0,.37-.27.37-.35a4.47,4.47,0,0,0-1.71-1.25A2.5,2.5,0,0,0,7.65,11.19Z"/><path class="cls-14" d="M7.53,11.89c-1.37-.11-2.34,1.37-2.29,2.61A1.5,1.5,0,0,0,6,15.83a1.18,1.18,0,0,1,.44.24,3,3,0,0,0,.29.32,2,2,0,0,0,.82.39c.54.13,1.28.23,1.63-.3a1.51,1.51,0,0,0,.27-.74.44.44,0,0,0-.3-.46,4.12,4.12,0,0,1-1.34-.63l-.13-.13c-.06,0-.12-.07-.1-.13s.25-.17.32-.22.37-.3.57-.42,1.11-.42,1-.75c0-.11-.26-.24-.35-.31a4.2,4.2,0,0,0-.49-.33,3,3,0,0,0-1.11-.46c-.09,0-.13.13,0,.14A3.49,3.49,0,0,1,9.25,13s.08.06.09.1-.15.15-.18.17l-.22.11a4.11,4.11,0,0,0-.51.27A5,5,0,0,0,8,14a4,4,0,0,0-.47.34c-.08.09-.07.15,0,.25a2,2,0,0,0,.45.37,7.92,7.92,0,0,0,1.12.49.37.37,0,0,1,.2.12c.12.14.05.34,0,.5a.92.92,0,0,1-.63.69,2.7,2.7,0,0,1-1-.07,1.76,1.76,0,0,1-.86-.46c-.17-.17-.24-.31-.47-.41a1.31,1.31,0,0,1-.68-.52,2.19,2.19,0,0,1,.11-2.09A2,2,0,0,1,7.53,12C7.63,12.05,7.63,11.9,7.53,11.89Z"/><path class="cls-24" d="M7.53,12a1.7,1.7,0,0,0-1,.24,2,2,0,0,0-.51.36,2.44,2.44,0,0,0-.5.81,2.69,2.69,0,0,0-.22,1.25,1.44,1.44,0,0,0,.75,1.14,1.28,1.28,0,0,1,.42.21.88.88,0,0,1,.12.15,1.62,1.62,0,0,0,.81.53,3.58,3.58,0,0,0,.9.14,1.26,1.26,0,0,0,.51-.07,1.2,1.2,0,0,0,.55-.82.75.75,0,0,0,0-.2.46.46,0,0,0-.13-.31l-.13-.05a6,6,0,0,1-1.39-.67c-.12-.13-.3-.23-.25-.3s.35-.24.46-.34a3.9,3.9,0,0,1,.81-.53l.38-.19c.08,0,.27-.2.27-.29a5.08,5.08,0,0,0-1.33-.89A1.88,1.88,0,0,0,7.53,12Z"/><path class="cls-14" d="M8.44,15.32a3.07,3.07,0,0,1-.74-.49c-.08-.07-.3-.25-.25-.38s.19-.15.26-.2a2.51,2.51,0,0,1,.71-.45c.19-.07.36-.17.39-.39a.08.08,0,0,0,0-.06c-.36-.19-.71-.4-1.07-.58a1,1,0,0,0-.91,0,1.47,1.47,0,0,0-.7.6,2.84,2.84,0,0,0-.33,1,1.13,1.13,0,0,0,.19.84.94.94,0,0,0,.28.24,2.83,2.83,0,0,0,.4.08c.13.05.17.25.26.35a1.24,1.24,0,0,0,.36.29,2.47,2.47,0,0,0,.42.17,1.87,1.87,0,0,0,.52.12c.29,0,.45-.23.52-.49a.72.72,0,0,0,0-.41.51.51,0,0,0-.3-.24c-.09,0-.17.09-.08.13a.4.4,0,0,1,.2.11c.08.08,0,.18,0,.28a.74.74,0,0,1-.18.39c-.16.15-.39.06-.58,0a2.34,2.34,0,0,1-.5-.19,1,1,0,0,1-.39-.34c-.06-.09-.08-.2-.17-.27a.8.8,0,0,0-.34-.07A.64.64,0,0,1,6,15.07,1.24,1.24,0,0,1,6,14a1.53,1.53,0,0,1,.56-.9,1.86,1.86,0,0,1,.49-.24.79.79,0,0,1,.62.08l1,.55,0-.07c0,.22-.31.25-.47.32a1.29,1.29,0,0,0-.35.22l-.36.28a.52.52,0,0,0-.18.18c-.08.2.17.41.3.53a2.81,2.81,0,0,0,.76.51C8.45,15.49,8.53,15.36,8.44,15.32Z"/><path class="cls-13" d="M11.42,13.49l7.64.25a6.22,6.22,0,0,0,.06-.86,6.31,6.31,0,0,0-1.21-3.71Z"/><path class="cls-13" d="M11.91,13.42l6.76.22a6.32,6.32,0,0,0,.06-.76,5.64,5.64,0,0,0-1.08-3.3Z"/><path class="cls-13" d="M12.39,13.35l5.89.19a4.89,4.89,0,0,0,0-.66A5,5,0,0,0,17.39,10Z"/><path class="cls-13" d="M12.88,13.28l5,.17a3.64,3.64,0,0,0,0-.57,4.24,4.24,0,0,0-.79-2.46Z"/><path class="cls-13" d="M13.36,13.21l4.14.14a3.73,3.73,0,0,0,0-.47,3.52,3.52,0,0,0-.66-2Z"/><path class="cls-13" d="M13.84,13.14l3.27.11a2.34,2.34,0,0,0,0-.38,2.82,2.82,0,0,0-.52-1.62Z"/><path class="cls-13" d="M14.33,13.07l2.39.08a2.46,2.46,0,0,0,0-.28,2.11,2.11,0,0,0-.38-1.2Z"/></g></g></svg>