<svg xmlns="http://www.w3.org/2000/svg" viewBox="0 0 29.41 29.52"><defs><style>.cls-1,.cls-2,.cls-3,.cls-4,.cls-5,.cls-6{fill:none;stroke:#63c9d9;stroke-miterlimit:10;}.cls-1{stroke-width:0.25px;}.cls-2{stroke-width:0.23px;}.cls-3{stroke-width:0.21px;}.cls-4{stroke-width:0.19px;}.cls-5{stroke-width:0.17px;}.cls-6{stroke-width:0.15px;}</style></defs><g id="Layer_2" data-name="Layer 2"><g id="Layer_1-2" data-name="Layer 1"><ellipse class="cls-1" cx="14.96" cy="15.22" rx="6" ry="5.5"/><ellipse class="cls-1" cx="15.05" cy="15.26" rx="5.67" ry="5.2"/><ellipse class="cls-1" cx="15.14" cy="15.29" rx="5.34" ry="4.91"/><ellipse class="cls-1" cx="15.23" cy="15.33" rx="5" ry="4.61"/><ellipse class="cls-1" cx="15.32" cy="15.37" rx="4.67" ry="4.31"/><ellipse class="cls-1" cx="15.41" cy="15.41" rx="4.34" ry="4.02"/><ellipse class="cls-1" cx="15.5" cy="15.44" rx="4.01" ry="3.72"/><ellipse class="cls-1" cx="15.59" cy="15.48" rx="3.67" ry="3.42"/><ellipse class="cls-1" cx="15.68" cy="15.52" rx="3.34" ry="3.13"/><ellipse class="cls-1" cx="15.77" cy="15.55" rx="3.01" ry="2.83"/><ellipse class="cls-1" cx="15.86" cy="15.59" rx="2.68" ry="2.53"/><ellipse class="cls-1" cx="15.95" cy="15.63" rx="2.34" ry="2.24"/><ellipse class="cls-1" cx="23.77" cy="6.85" rx="2.13" ry="2.19" transform="translate(2.55 19.57) rotate(-47)"/><ellipse class="cls-2" cx="23.56" cy="7.02" rx="1.76" ry="1.82" transform="translate(1.23 17.3) rotate(-41.3)"/><ellipse class="cls-3" cx="23.35" cy="7.18" rx="1.39" ry="1.46" transform="translate(0.17 14.89) rotate(-35.48)"/><ellipse class="cls-4" cx="23.14" cy="7.35" rx="1.03" ry="1.1" transform="translate(-0.64 12.26) rotate(-29.28)"/><ellipse class="cls-5" cx="22.93" cy="7.52" rx="0.68" ry="0.76" transform="translate(-1.16 8.93) rotate(-21.5)"/><ellipse class="cls-6" cx="22.72" cy="7.69" rx="0.38" ry="0.46" transform="translate(-0.79 2.96) rotate(-7.32)"/><path class="cls-6" d="M20.7,8.68A2.22,2.22,0,0,0,22.39,9.8a1.41,1.41,0,0,1-.67.76,1.49,1.49,0,0,1-2-.59,1.41,1.41,0,0,1,.61-1.92l.12,0A2.39,2.39,0,0,0,20.7,8.68Z"/><path class="cls-6" d="M20.79,8.76a2,2,0,0,0,1.52,1,1.3,1.3,0,0,1-2.37.16,1.26,1.26,0,0,1,.55-1.72.35.35,0,0,1,.11,0A1.85,1.85,0,0,0,20.79,8.76Z"/><path class="cls-6" d="M20.88,8.85a1.73,1.73,0,0,0,1.35.88,1.17,1.17,0,0,1-2.11.15,1.12,1.12,0,0,1,.49-1.53s.07,0,.1,0A1.73,1.73,0,0,0,20.88,8.85Z"/><path class="cls-6" d="M21,8.93a1.49,1.49,0,0,0,1.17.77,1,1,0,0,1-.47.53,1,1,0,0,1-1.37-.4,1,1,0,0,1,.44-1.33l.09,0A1.24,1.24,0,0,0,21,8.93Z"/><path class="cls-6" d="M21.06,9a1.24,1.24,0,0,0,1,.64.84.84,0,0,1-.41.46.86.86,0,0,1-1.16-.33.84.84,0,0,1,.38-1.14l.07,0A1.46,1.46,0,0,0,21.06,9Z"/><path class="cls-6" d="M21.15,9.1a1,1,0,0,0,.83.53.78.78,0,0,1-.34.38.72.72,0,0,1-1-.26A.7.7,0,0,1,21,8.8l.06,0A1.19,1.19,0,0,0,21.15,9.1Z"/><path class="cls-6" d="M21.24,9.19a.8.8,0,0,0,.65.41.6.6,0,0,1-.27.3.54.54,0,1,1-.5-1h.05A.78.78,0,0,0,21.24,9.19Z"/><ellipse class="cls-1" cx="6.4" cy="7.04" rx="2.19" ry="2.13" transform="translate(-3.08 6.26) rotate(-43)"/><ellipse class="cls-2" cx="6.61" cy="7.21" rx="1.82" ry="1.76" transform="translate(-3.17 7.42) rotate(-48.7)"/><ellipse class="cls-3" cx="6.82" cy="7.38" rx="1.46" ry="1.39" transform="translate(-3.15 8.65) rotate(-54.52)"/><ellipse class="cls-4" cx="7.03" cy="7.55" rx="1.1" ry="1.03" transform="translate(-2.99 9.99) rotate(-60.72)"/><ellipse class="cls-5" cx="7.24" cy="7.72" rx="0.76" ry="0.68" transform="translate(-2.59 11.63) rotate(-68.5)"/><ellipse class="cls-6" cx="7.45" cy="7.88" rx="0.46" ry="0.38" transform="translate(-1.32 14.27) rotate(-82.68)"/><path class="cls-6" d="M9.47,8.87A2.17,2.17,0,0,1,7.78,10a1.41,1.41,0,0,0,.67.76,1.48,1.48,0,0,0,2-.59,1.4,1.4,0,0,0-.61-1.92s-.08,0-.12,0A2.05,2.05,0,0,1,9.47,8.87Z"/><path class="cls-6" d="M9.38,9a2,2,0,0,1-1.51,1,1.21,1.21,0,0,0,.6.68,1.33,1.33,0,0,0,1.77-.52,1.27,1.27,0,0,0-.55-1.73.35.35,0,0,1-.11,0A1.7,1.7,0,0,1,9.38,9Z"/><path class="cls-6" d="M9.29,9A1.69,1.69,0,0,1,8,9.92a1.11,1.11,0,0,0,.54.61,1.17,1.17,0,0,0,1.57-.46,1.12,1.12,0,0,0-.5-1.52.29.29,0,0,0-.1,0A1.27,1.27,0,0,1,9.29,9Z"/><path class="cls-6" d="M9.2,9.13A1.49,1.49,0,0,1,8,9.89a1,1,0,0,0,.47.53A1,1,0,0,0,9.87,10,1,1,0,0,0,9.44,8.7l-.09,0A1.31,1.31,0,0,1,9.2,9.13Z"/><path class="cls-6" d="M9.11,9.21a1.25,1.25,0,0,1-1,.65.83.83,0,0,0,.4.45A.86.86,0,0,0,9.69,10a.83.83,0,0,0-.38-1.13s-.05,0-.07,0A1.06,1.06,0,0,1,9.11,9.21Z"/><path class="cls-6" d="M9,9.3a1,1,0,0,1-.82.53.68.68,0,0,0,.34.37.72.72,0,0,0,1-.26A.7.7,0,0,0,9.18,9L9.12,9A.75.75,0,0,1,9,9.3Z"/><path class="cls-6" d="M8.93,9.38a.78.78,0,0,1-.65.41.6.6,0,0,0,.28.31.57.57,0,0,0,.77-.2.58.58,0,0,0-.27-.75L9,9.13A.57.57,0,0,1,8.93,9.38Z"/><ellipse class="cls-1" cx="27.16" cy="14.27" rx="2.13" ry="2.19" transform="translate(-0.93 1.93) rotate(-4.01)"/><ellipse class="cls-2" cx="26.89" cy="14.25" rx="1.82" ry="1.76" transform="translate(11.85 40.71) rotate(-88.3)"/><ellipse class="cls-3" cx="26.62" cy="14.23" rx="1.46" ry="1.39" transform="translate(9.03 38.76) rotate(-82.49)"/><ellipse class="cls-4" cx="26.35" cy="14.21" rx="1.1" ry="1.03" transform="translate(6.3 36.45) rotate(-76.29)"/><ellipse class="cls-5" cx="26.09" cy="14.19" rx="0.76" ry="0.68" transform="translate(3.32 33.26) rotate(-68.51)"/><ellipse class="cls-6" cx="25.82" cy="14.17" rx="0.46" ry="0.38" transform="translate(-0.75 26.88) rotate(-54.33)"/><path class="cls-6" d="M23.67,13.51a2.17,2.17,0,0,0,.47,2,1.45,1.45,0,0,1-1,.1,1.49,1.49,0,0,1-1-1.78,1.41,1.41,0,0,1,1.75-1l.12.06A2,2,0,0,0,23.67,13.51Z"/><path class="cls-6" d="M23.67,13.64a2,2,0,0,0,.43,1.77,1.29,1.29,0,0,1-.91.08,1.32,1.32,0,0,1-.93-1.59A1.25,1.25,0,0,1,23.83,13l.11.05A1.87,1.87,0,0,0,23.67,13.64Z"/><path class="cls-6" d="M23.68,13.76a1.72,1.72,0,0,0,.38,1.56,1.12,1.12,0,0,1-.81.08,1.17,1.17,0,0,1-.83-1.4,1.11,1.11,0,0,1,1.4-.78s.06,0,.09,0A1.75,1.75,0,0,0,23.68,13.76Z"/><path class="cls-6" d="M23.69,13.89A1.46,1.46,0,0,0,24,15.24a1,1,0,0,1-.7.07,1,1,0,0,1-.74-1.22,1,1,0,0,1,1.23-.68l.08,0A1.27,1.27,0,0,0,23.69,13.89Z"/><path class="cls-6" d="M23.7,14A1.23,1.23,0,0,0,24,15.16a.86.86,0,0,1-.61.06.87.87,0,0,1-.63-1,.83.83,0,0,1,1.05-.57.15.15,0,0,1,.07,0A1,1,0,0,0,23.7,14Z"/><path class="cls-6" d="M23.7,14.13a1,1,0,0,0,.25.95.74.74,0,0,1-.51.05.73.73,0,0,1-.53-.86.71.71,0,0,1,.88-.47l.06,0A1.05,1.05,0,0,0,23.7,14.13Z"/><path class="cls-6" d="M23.71,14.26a.78.78,0,0,0,.2.74.63.63,0,0,1-.41,0,.54.54,0,1,1,.28-1l0,0A.68.68,0,0,0,23.71,14.26Z"/><ellipse class="cls-1" cx="2.25" cy="16.23" rx="2.19" ry="2.13" transform="translate(-14.1 17.34) rotate(-85.99)"/><ellipse class="cls-2" cx="2.52" cy="16.21" rx="1.76" ry="1.82" transform="translate(-0.48 0.08) rotate(-1.7)"/><ellipse class="cls-3" cx="2.79" cy="16.19" rx="1.39" ry="1.46" transform="translate(-2.09 0.5) rotate(-7.51)"/><ellipse class="cls-4" cx="3.06" cy="16.17" rx="1.03" ry="1.1" transform="translate(-3.75 1.19) rotate(-13.71)"/><ellipse class="cls-5" cx="3.33" cy="16.15" rx="0.68" ry="0.76" transform="translate(-5.69 2.34) rotate(-21.49)"/><ellipse class="cls-6" cx="3.59" cy="16.13" rx="0.38" ry="0.46" transform="translate(-8.73 5.12) rotate(-35.67)"/><path class="cls-6" d="M5.75,15.47a2.2,2.2,0,0,1-.48,2,1.45,1.45,0,0,0,1,.1,1.49,1.49,0,0,0,1-1.78,1.41,1.41,0,0,0-1.75-1l-.12.06A2,2,0,0,1,5.75,15.47Z"/><path class="cls-6" d="M5.74,15.6a2,2,0,0,1-.43,1.77,1.29,1.29,0,0,0,.91.08,1.32,1.32,0,0,0,.93-1.59A1.25,1.25,0,0,0,5.58,15l-.1,0A2.12,2.12,0,0,1,5.74,15.6Z"/><path class="cls-6" d="M5.73,15.72a1.71,1.71,0,0,1-.38,1.56,1.12,1.12,0,0,0,.81.08A1.17,1.17,0,0,0,7,16a1.11,1.11,0,0,0-1.4-.78s-.06,0-.09,0A1.75,1.75,0,0,1,5.73,15.72Z"/><path class="cls-6" d="M5.72,15.85a1.46,1.46,0,0,1-.33,1.35,1,1,0,0,0,.7.07,1,1,0,0,0,.74-1.22,1,1,0,0,0-1.23-.68l-.08,0A1.27,1.27,0,0,1,5.72,15.85Z"/><path class="cls-6" d="M5.72,16a1.29,1.29,0,0,1-.29,1.15.82.82,0,0,0,.6.06.87.87,0,0,0,.63-1,.84.84,0,0,0-1-.57s0,0-.07,0A1.16,1.16,0,0,1,5.72,16Z"/><path class="cls-6" d="M5.71,16.09a1,1,0,0,1-.25.95.74.74,0,0,0,.51.05.69.69,0,1,0-.35-1.33l-.06,0A.85.85,0,0,1,5.71,16.09Z"/><path class="cls-6" d="M5.7,16.22a.78.78,0,0,1-.2.74.58.58,0,0,0,.41,0,.57.57,0,0,0,.43-.67A.58.58,0,0,0,5.63,16l0,0A.68.68,0,0,1,5.7,16.22Z"/><ellipse class="cls-1" cx="24.25" cy="22.92" rx="2.19" ry="2.13" transform="translate(-8.83 27.35) rotate(-51.01)"/><ellipse class="cls-2" cx="24.06" cy="22.73" rx="1.82" ry="1.76" transform="translate(-9.02 23.85) rotate(-45.3)"/><ellipse class="cls-3" cx="23.88" cy="22.53" rx="1.46" ry="1.39" transform="translate(-8.88 20.33) rotate(-39.49)"/><ellipse class="cls-4" cx="23.7" cy="22.33" rx="1.1" ry="1.03" transform="translate(-8.37 16.67) rotate(-33.29)"/><ellipse class="cls-5" cx="23.52" cy="22.13" rx="0.76" ry="0.68" transform="translate(-7.24 12.29) rotate(-25.51)"/><ellipse class="cls-6" cx="23.33" cy="21.94" rx="0.46" ry="0.38" transform="translate(-3.86 5.01) rotate(-11.33)"/><path class="cls-6" d="M22.21,20a2.19,2.19,0,0,0-1,1.76,1.43,1.43,0,0,1-.81-.61,1.49,1.49,0,0,1,.45-2,1.41,1.41,0,0,1,2,.47s0,.08,0,.12A2.24,2.24,0,0,0,22.21,20Z"/><path class="cls-6" d="M22.13,20.08a2,2,0,0,0-.89,1.59,1.26,1.26,0,0,1-.73-.56,1.33,1.33,0,0,1,.4-1.8,1.26,1.26,0,0,1,1.76.43s0,.07,0,.11A1.8,1.8,0,0,0,22.13,20.08Z"/><path class="cls-6" d="M22.05,20.18a1.73,1.73,0,0,0-.79,1.4,1.14,1.14,0,0,1-.64-.49,1.18,1.18,0,0,1,.35-1.6,1.13,1.13,0,0,1,1.56.39l0,.09A1.72,1.72,0,0,0,22.05,20.18Z"/><path class="cls-6" d="M22,20.28a1.46,1.46,0,0,0-.68,1.22A1,1,0,0,1,21,19.67a1,1,0,0,1,1.35.34s0,.06,0,.09A1.25,1.25,0,0,0,22,20.28Z"/><path class="cls-6" d="M21.89,20.37a1.27,1.27,0,0,0-.57,1,.89.89,0,0,1-.49-.37.87.87,0,0,1,.25-1.19.84.84,0,0,1,1.16.3s0,.05,0,.07A1.37,1.37,0,0,0,21.89,20.37Z"/><path class="cls-6" d="M21.81,20.47a1,1,0,0,0-.47.86.82.82,0,0,1-.4-.32.71.71,0,0,1,.2-1,.69.69,0,0,1,1,.26l0,.06A1,1,0,0,0,21.81,20.47Z"/><path class="cls-6" d="M21.73,20.56a.81.81,0,0,0-.36.68.64.64,0,0,1-.32-.25.54.54,0,1,1,.91-.57l0,0A.75.75,0,0,0,21.73,20.56Z"/><ellipse class="cls-1" cx="8.56" cy="25.13" rx="2.13" ry="2.19" transform="translate(-17.59 20.53) rotate(-61.23)"/><ellipse class="cls-2" cx="8.72" cy="24.91" rx="1.76" ry="1.82" transform="translate(-16.75 17.99) rotate(-55.52)"/><ellipse class="cls-3" cx="8.88" cy="24.7" rx="1.39" ry="1.46" transform="translate(-15.7 15.5) rotate(-49.7)"/><ellipse class="cls-4" cx="9.04" cy="24.48" rx="1.03" ry="1.1" transform="translate(-14.37 12.95) rotate(-43.51)"/><ellipse class="cls-5" cx="9.2" cy="24.27" rx="0.68" ry="0.76" transform="translate(-12.44 9.94) rotate(-35.72)"/><ellipse class="cls-6" cx="9.37" cy="24.05" rx="0.38" ry="0.46" transform="translate(-8.18 5.12) rotate(-21.55)"/><path class="cls-6" d="M11.08,22.6a2.17,2.17,0,0,0-1.91-.67,1.38,1.38,0,0,1,.46-.9,1.48,1.48,0,0,1,2.06.09,1.4,1.4,0,0,1-.12,2,1.05,1.05,0,0,0-.11.07A2,2,0,0,0,11.08,22.6Z"/><path class="cls-6" d="M11,22.54a2,2,0,0,0-1.72-.6,1.24,1.24,0,0,1,.42-.81,1.33,1.33,0,0,1,1.84.07A1.27,1.27,0,0,1,11.41,23s-.07,0-.1.06A2,2,0,0,0,11,22.54Z"/><path class="cls-6" d="M10.87,22.48A1.73,1.73,0,0,0,9.35,22a1.15,1.15,0,0,1,.37-.72,1.17,1.17,0,0,1,1.63.06,1.11,1.11,0,0,1-.1,1.6s-.06,0-.09.06A1.53,1.53,0,0,0,10.87,22.48Z"/><path class="cls-6" d="M10.76,22.42A1.44,1.44,0,0,0,9.44,22a1,1,0,0,1,1.75-.59,1,1,0,0,1-.1,1.4.2.2,0,0,1-.08,0A1.41,1.41,0,0,0,10.76,22.42Z"/><path class="cls-6" d="M10.65,22.36A1.24,1.24,0,0,0,9.52,22a.89.89,0,0,1,1.5-.51.83.83,0,0,1-.09,1.19l-.06,0A1.24,1.24,0,0,0,10.65,22.36Z"/><path class="cls-6" d="M10.54,22.3A1,1,0,0,0,9.61,22a.74.74,0,0,1,.24-.45.71.71,0,0,1,1,0,.69.69,0,0,1-.08,1l0,0A.84.84,0,0,0,10.54,22.3Z"/><path class="cls-6" d="M10.43,22.24A.77.77,0,0,0,9.7,22a.61.61,0,0,1,.19-.36.57.57,0,0,1,.8,0,.56.56,0,0,1-.08.79s0,0,0,0A.64.64,0,0,0,10.43,22.24Z"/><ellipse class="cls-1" cx="16.45" cy="27.27" rx="2.19" ry="2.13" transform="translate(-1.31 0.84) rotate(-2.8)"/><ellipse class="cls-2" cx="16.47" cy="27" rx="1.76" ry="1.82" transform="translate(-11.33 42.08) rotate(-87.09)"/><ellipse class="cls-3" cx="16.5" cy="26.73" rx="1.39" ry="1.46" transform="translate(-12.43 38.98) rotate(-81.28)"/><ellipse class="cls-4" cx="16.52" cy="26.46" rx="1.03" ry="1.1" transform="matrix(0.26, -0.97, 0.97, 0.26, -13.3, 35.62)"/><ellipse class="cls-5" cx="16.55" cy="26.2" rx="0.68" ry="0.76" transform="translate(-14.01 31.35) rotate(-67.3)"/><ellipse class="cls-6" cx="16.57" cy="25.93" rx="0.38" ry="0.46" transform="translate(-14.11 23.62) rotate(-53.12)"/><path class="cls-6" d="M17.28,23.79a2.21,2.21,0,0,0-2,.43,1.39,1.39,0,0,1-.07-1,1.48,1.48,0,0,1,1.79-1A1.4,1.4,0,0,1,18,24a.45.45,0,0,1-.06.12A2.12,2.12,0,0,0,17.28,23.79Z"/><path class="cls-6" d="M17.15,23.8a1.94,1.94,0,0,0-1.77.39,1.24,1.24,0,0,1-.07-.91,1.33,1.33,0,0,1,1.61-.91,1.27,1.27,0,0,1,.85,1.6s0,.06-.06.1A1.54,1.54,0,0,0,17.15,23.8Z"/><path class="cls-6" d="M17,23.8a1.71,1.71,0,0,0-1.57.35,1.12,1.12,0,0,1-.06-.81,1.17,1.17,0,0,1,1.42-.8A1.11,1.11,0,0,1,17.57,24a.26.26,0,0,1-.05.09A1.6,1.6,0,0,0,17,23.8Z"/><path class="cls-6" d="M16.9,23.81a1.48,1.48,0,0,0-1.36.3,1,1,0,0,1,0-.71,1,1,0,0,1,1.24-.7,1,1,0,0,1,.65,1.24.35.35,0,0,1-.05.08A1.23,1.23,0,0,0,16.9,23.81Z"/><path class="cls-6" d="M16.78,23.81a1.26,1.26,0,0,0-1.16.27.85.85,0,0,1,0-.61.87.87,0,0,1,1-.61.84.84,0,0,1,.55,1.07l0,.06A1.21,1.21,0,0,0,16.78,23.81Z"/><path class="cls-6" d="M16.66,23.82a1,1,0,0,0-1,.22.8.8,0,0,1,0-.51.71.71,0,0,1,.86-.51.69.69,0,0,1,.45.89s0,0,0,.06A.85.85,0,0,0,16.66,23.82Z"/><path class="cls-6" d="M16.53,23.82a.8.8,0,0,0-.75.18.63.63,0,0,1,0-.41.56.56,0,0,1,.68-.41.58.58,0,0,1,.35.72.08.08,0,0,0,0,0A.9.9,0,0,0,16.53,23.82Z"/><ellipse class="cls-1" cx="15.46" cy="2.25" rx="2.19" ry="2.13" transform="translate(-0.12 1.09) rotate(-4.01)"/><ellipse class="cls-2" cx="15.44" cy="2.52" rx="1.76" ry="1.82" transform="translate(12.46 17.88) rotate(-88.3)"/><ellipse class="cls-3" cx="15.42" cy="2.79" rx="1.39" ry="1.46" transform="translate(10.64 17.71) rotate(-82.49)"/><ellipse class="cls-4" cx="15.4" cy="3.06" rx="1.03" ry="1.1" transform="translate(8.78 17.3) rotate(-76.29)"/><ellipse class="cls-5" cx="15.38" cy="3.33" rx="0.68" ry="0.76" transform="translate(6.65 16.42) rotate(-68.51)"/><ellipse class="cls-6" cx="15.36" cy="3.59" rx="0.38" ry="0.46" transform="translate(3.48 13.98) rotate(-54.33)"/><path class="cls-6" d="M14.7,5.75a2.2,2.2,0,0,0,2-.48,1.45,1.45,0,0,1,.1,1,1.49,1.49,0,0,1-1.78,1,1.41,1.41,0,0,1-1-1.75,1.33,1.33,0,0,0,.06-.12A2,2,0,0,0,14.7,5.75Z"/><path class="cls-6" d="M14.83,5.74a2,2,0,0,0,1.77-.43,1.29,1.29,0,0,1,.08.91,1.32,1.32,0,0,1-1.59.93,1.25,1.25,0,0,1-.88-1.57.93.93,0,0,1,0-.1A2.12,2.12,0,0,0,14.83,5.74Z"/><path class="cls-6" d="M15,5.73a1.71,1.71,0,0,0,1.56-.38,1.12,1.12,0,0,1,.08.81,1.17,1.17,0,0,1-1.4.83,1.11,1.11,0,0,1-.78-1.4.79.79,0,0,1,0-.09A1.75,1.75,0,0,0,15,5.73Z"/><path class="cls-6" d="M15.08,5.72a1.46,1.46,0,0,0,1.35-.33,1,1,0,0,1,.07.7,1,1,0,0,1-1.22.74A1,1,0,0,1,14.6,5.6s0,0,0-.08A1.35,1.35,0,0,0,15.08,5.72Z"/><path class="cls-6" d="M15.2,5.72a1.29,1.29,0,0,0,1.15-.29.82.82,0,0,1,.06.6.86.86,0,0,1-1,.63.84.84,0,0,1-.57-1s0,0,0-.07A1.16,1.16,0,0,0,15.2,5.72Z"/><path class="cls-6" d="M15.32,5.71a1,1,0,0,0,.95-.25.74.74,0,0,1,.05.51A.69.69,0,1,1,15,5.62l0-.06A.85.85,0,0,0,15.32,5.71Z"/><path class="cls-6" d="M15.45,5.7a.78.78,0,0,0,.74-.2.64.64,0,0,1,0,.41.58.58,0,0,1-.68.43.58.58,0,0,1-.36-.71s0,0,0,0A.68.68,0,0,0,15.45,5.7Z"/></g></g></svg>