<svg xmlns="http://www.w3.org/2000/svg" viewBox="0 0 18.84 23.98"><defs><style>.cls-1{fill:none;stroke:#33c0cc;stroke-miterlimit:10;stroke-width:0.25px;}</style></defs><g id="Layer_2" data-name="Layer 2"><g id="Layer_1-2" data-name="Layer 1"><path class="cls-1" d="M8.75,23.17l3.71-6a2.41,2.41,0,0,0-.09-2.74L8.27,8.55A3,3,0,0,0,7.76,8h3.4a4.12,4.12,0,0,1,3.29,1.45l3.77,5.06a2.28,2.28,0,0,1,0,2.84L14.45,22.4a4.13,4.13,0,0,1-3.29,1.46h-3A3.13,3.13,0,0,0,8.75,23.17Z"/><path class="cls-1" d="M10.32,21.79l2.95-4.92a2,2,0,0,0-.07-2.24L9.94,9.82a3.47,3.47,0,0,0-.41-.45H11.9a3.2,3.2,0,0,1,2.61,1.19l3,4.14a1.89,1.89,0,0,1,0,2.32l-3,4.15a3.23,3.23,0,0,1-2.61,1.19H9.85A2.3,2.3,0,0,0,10.32,21.79Z"/><path class="cls-1" d="M11.89,20.42l2.19-3.83A1.65,1.65,0,0,0,14,14.84L11.6,11.1a1.68,1.68,0,0,0-.3-.35h1.33a2.34,2.34,0,0,1,1.94.92L16.8,14.9a1.55,1.55,0,0,1,0,1.81l-2.23,3.22a2.34,2.34,0,0,1-1.94.93H11.54A2.12,2.12,0,0,0,11.89,20.42Z"/><path class="cls-1" d="M13.45,19.05l1.44-2.75a1.27,1.27,0,0,0,0-1.24l-1.58-2.68a2.56,2.56,0,0,0-.2-.26h.3a1.51,1.51,0,0,1,1.27.67l1.45,2.31a1.16,1.16,0,0,1,0,1.29L14.64,18.7a1.5,1.5,0,0,1-1.27.66h-.14A1.34,1.34,0,0,0,13.45,19.05Z"/><path class="cls-1" d="M8.7,15.31l-2.82-6A3.07,3.07,0,0,1,6,6.55L9.07.68A3.52,3.52,0,0,1,9.46.12H5.87a2.88,2.88,0,0,0-2.5,1.46L.5,6.64a2.88,2.88,0,0,0,0,2.84l2.87,5.06A2.87,2.87,0,0,0,5.87,16H9.15A2.87,2.87,0,0,1,8.7,15.31Z"/><path class="cls-1" d="M7.58,14,5.34,9.08a2.55,2.55,0,0,1,0-2.24L7.87,2a2.51,2.51,0,0,1,.32-.46H5.72a2.27,2.27,0,0,0-2,1.19L1.44,6.91a2.47,2.47,0,0,0,0,2.33l2.29,4.14a2.29,2.29,0,0,0,2,1.19H7.94A3,3,0,0,1,7.58,14Z"/><path class="cls-1" d="M6.46,12.71,4.79,8.87a2.11,2.11,0,0,1,0-1.74L6.68,3.39A1.69,1.69,0,0,1,6.91,3H5.56A1.66,1.66,0,0,0,4.09,4L2.39,7.18A1.93,1.93,0,0,0,2.39,9l1.7,3.23a1.67,1.67,0,0,0,1.47.92H6.73A1.73,1.73,0,0,1,6.46,12.71Z"/><path class="cls-1" d="M5.34,11.41,4.25,8.66a1.6,1.6,0,0,1,0-1.25l1.2-2.67a2.2,2.2,0,0,1,.15-.26H5.41a1.11,1.11,0,0,0-1,.67L3.33,7.45a1.55,1.55,0,0,0,0,1.3l1.11,2.31a1.1,1.1,0,0,0,1,.66h.1A2.27,2.27,0,0,1,5.34,11.41Z"/></g></g></svg>