<svg xmlns="http://www.w3.org/2000/svg" viewBox="0 0 12.7 14.75"><defs><style>.cls-1,.cls-2,.cls-3,.cls-4,.cls-5,.cls-6{fill:none;stroke:#63c9d9;stroke-miterlimit:10;}.cls-1{stroke-width:0.25px;}.cls-2{stroke-width:0.23px;}.cls-3{stroke-width:0.21px;}.cls-4{stroke-width:0.19px;}.cls-5{stroke-width:0.17px;}.cls-6{stroke-width:0.15px;}</style></defs><g id="Layer_2" data-name="Layer 2"><g id="Layer_1-2" data-name="Layer 1"><ellipse class="cls-1" cx="1.12" cy="9.46" rx="0.99" ry="1.25" transform="translate(-0.55 0.08) rotate(-3.36)"/><ellipse class="cls-2" cx="1.02" cy="9.56" rx="0.82" ry="1.04" transform="translate(-0.66 0.09) rotate(-3.99)"/><ellipse class="cls-3" cx="0.92" cy="9.66" rx="0.65" ry="0.83" transform="matrix(1, -0.08, 0.08, 1, -0.8, 0.11)"/><ellipse class="cls-4" cx="0.83" cy="9.76" rx="0.48" ry="0.63" transform="translate(-0.97 0.13) rotate(-5.7)"/><ellipse class="cls-5" cx="0.73" cy="9.86" rx="0.32" ry="0.44" transform="translate(-1.07 0.14) rotate(-6.28)"/><ellipse class="cls-6" cx="0.64" cy="9.95" rx="0.17" ry="0.27" transform="translate(-0.56 0.05) rotate(-3.23)"/><ellipse class="cls-1" cx="1.58" cy="5.37" rx="0.99" ry="1.25" transform="translate(-0.31 0.1) rotate(-3.36)"/><ellipse class="cls-2" cx="1.48" cy="5.47" rx="0.82" ry="1.04" transform="translate(-0.38 0.12) rotate(-3.99)"/><ellipse class="cls-3" cx="1.39" cy="5.57" rx="0.65" ry="0.83" transform="translate(-0.46 0.14) rotate(-4.78)"/><ellipse class="cls-4" cx="1.29" cy="5.67" rx="0.48" ry="0.63" transform="translate(-0.56 0.16) rotate(-5.7)"/><ellipse class="cls-5" cx="1.2" cy="5.76" rx="0.32" ry="0.44" transform="translate(-0.62 0.17) rotate(-6.28)"/><ellipse class="cls-6" cx="1.1" cy="5.86" rx="0.17" ry="0.27" transform="translate(-0.33 0.07) rotate(-3.23)"/><ellipse class="cls-1" cx="3.58" cy="2.37" rx="0.99" ry="1.25" transform="translate(-0.13 0.21) rotate(-3.36)"/><ellipse class="cls-2" cx="3.48" cy="2.47" rx="0.82" ry="1.04" transform="translate(-0.16 0.25) rotate(-3.99)"/><ellipse class="cls-3" cx="3.39" cy="2.57" rx="0.65" ry="0.83" transform="translate(-0.2 0.29) rotate(-4.78)"/><ellipse class="cls-4" cx="3.29" cy="2.67" rx="0.48" ry="0.63" transform="translate(-0.25 0.34) rotate(-5.7)"/><ellipse class="cls-5" cx="3.2" cy="2.76" rx="0.32" ry="0.44" transform="translate(-0.28 0.37) rotate(-6.28)"/><ellipse class="cls-6" cx="3.1" cy="2.86" rx="0.17" ry="0.27" transform="translate(-0.16 0.18) rotate(-3.23)"/><ellipse class="cls-1" cx="3.58" cy="12.37" rx="0.99" ry="1.25" transform="translate(-0.72 0.23) rotate(-3.36)"/><ellipse class="cls-2" cx="3.48" cy="12.47" rx="0.82" ry="1.04" transform="translate(-0.86 0.27) rotate(-3.99)"/><ellipse class="cls-3" cx="3.39" cy="12.57" rx="0.65" ry="0.83" transform="translate(-1.04 0.33) rotate(-4.78)"/><ellipse class="cls-4" cx="3.29" cy="12.67" rx="0.48" ry="0.63" transform="translate(-1.24 0.39) rotate(-5.7)"/><ellipse class="cls-5" cx="3.2" cy="12.76" rx="0.32" ry="0.44" transform="translate(-1.38 0.43) rotate(-6.28)"/><ellipse class="cls-6" cx="3.1" cy="12.86" rx="0.17" ry="0.27" transform="translate(-0.72 0.2) rotate(-3.23)"/><ellipse class="cls-1" cx="6.58" cy="13.37" rx="0.99" ry="1.25" transform="translate(-0.77 0.41) rotate(-3.36)"/><ellipse class="cls-2" cx="6.48" cy="13.47" rx="0.82" ry="1.04" transform="translate(-0.92 0.48) rotate(-3.99)"/><ellipse class="cls-3" cx="6.39" cy="13.57" rx="0.65" ry="0.83" transform="translate(-1.11 0.58) rotate(-4.78)"/><ellipse class="cls-4" cx="6.29" cy="13.67" rx="0.48" ry="0.63" transform="translate(-1.33 0.69) rotate(-5.7)"/><ellipse class="cls-5" cx="6.2" cy="13.76" rx="0.32" ry="0.44" transform="translate(-1.47 0.76) rotate(-6.28)"/><ellipse class="cls-6" cx="6.1" cy="13.86" rx="0.17" ry="0.27" transform="translate(-0.77 0.37) rotate(-3.23)"/><ellipse class="cls-1" cx="9.58" cy="12.37" rx="0.99" ry="1.25" transform="translate(-0.71 0.58) rotate(-3.36)"/><ellipse class="cls-2" cx="9.48" cy="12.47" rx="0.82" ry="1.04" transform="translate(-0.84 0.69) rotate(-3.99)"/><ellipse class="cls-3" cx="9.39" cy="12.57" rx="0.65" ry="0.83" transform="translate(-1.02 0.83) rotate(-4.78)"/><ellipse class="cls-4" cx="9.29" cy="12.67" rx="0.48" ry="0.63" transform="translate(-1.21 0.99) rotate(-5.7)"/><ellipse class="cls-5" cx="9.2" cy="12.76" rx="0.32" ry="0.44" transform="translate(-1.34 1.08) rotate(-6.28)"/><ellipse class="cls-6" cx="9.1" cy="12.86" rx="0.17" ry="0.27" transform="translate(-0.71 0.53) rotate(-3.23)"/><ellipse class="cls-1" cx="6.58" cy="1.37" rx="0.99" ry="1.25" transform="translate(-0.07 0.39) rotate(-3.36)"/><ellipse class="cls-2" cx="6.48" cy="1.47" rx="0.82" ry="1.04" transform="translate(-0.09 0.45) rotate(-3.99)"/><ellipse class="cls-3" cx="6.39" cy="1.57" rx="0.65" ry="0.83" transform="translate(-0.11 0.54) rotate(-4.78)"/><ellipse class="cls-4" cx="6.29" cy="1.67" rx="0.48" ry="0.63" transform="translate(-0.13 0.63) rotate(-5.7)"/><ellipse class="cls-5" cx="6.2" cy="1.76" rx="0.32" ry="0.44" transform="translate(-0.16 0.69) rotate(-6.28)"/><ellipse class="cls-6" cx="6.1" cy="1.86" rx="0.17" ry="0.27" transform="translate(-0.1 0.35) rotate(-3.23)"/><ellipse class="cls-1" cx="9.58" cy="2.37" rx="0.99" ry="1.25" transform="translate(-0.12 0.56) rotate(-3.36)"/><ellipse class="cls-2" cx="9.48" cy="2.47" rx="0.82" ry="1.04" transform="translate(-0.15 0.67) rotate(-3.99)"/><ellipse class="cls-3" cx="9.39" cy="2.57" rx="0.65" ry="0.83" transform="translate(-0.18 0.79) rotate(-4.78)"/><ellipse class="cls-4" cx="9.29" cy="2.67" rx="0.48" ry="0.63" transform="translate(-0.22 0.94) rotate(-5.7)"/><ellipse class="cls-5" cx="9.2" cy="2.76" rx="0.32" ry="0.44" transform="translate(-0.25 1.02) rotate(-6.28)"/><ellipse class="cls-6" cx="9.1" cy="2.86" rx="0.17" ry="0.27" transform="translate(-0.15 0.52) rotate(-3.23)"/><ellipse class="cls-1" cx="11.58" cy="9.37" rx="0.99" ry="1.25" transform="translate(-0.53 0.69) rotate(-3.36)"/><ellipse class="cls-2" cx="11.48" cy="9.47" rx="0.82" ry="1.04" transform="translate(-0.63 0.82) rotate(-3.99)"/><ellipse class="cls-3" cx="11.39" cy="9.57" rx="0.65" ry="0.83" transform="translate(-0.76 0.98) rotate(-4.78)"/><ellipse class="cls-4" cx="11.29" cy="9.67" rx="0.48" ry="0.63" transform="translate(-0.9 1.17) rotate(-5.7)"/><ellipse class="cls-5" cx="11.2" cy="9.76" rx="0.32" ry="0.44" transform="translate(-1 1.28) rotate(-6.28)"/><ellipse class="cls-6" cx="11.1" cy="9.86" rx="0.17" ry="0.27" transform="translate(-0.54 0.64) rotate(-3.23)"/></g></g></svg>