<svg xmlns="http://www.w3.org/2000/svg" viewBox="0 0 17.52 17.57"><defs><style>.cls-1,.cls-2,.cls-3,.cls-4,.cls-5,.cls-6,.cls-7{fill:none;stroke:#63c9d9;stroke-miterlimit:10;}.cls-1{stroke-width:0.25px;}.cls-2{stroke-width:0.23px;}.cls-3{stroke-width:0.22px;}.cls-4{stroke-width:0.2px;}.cls-5{stroke-width:0.18px;}.cls-6{stroke-width:0.17px;}.cls-7{stroke-width:0.15px;}</style></defs><g id="Layer_2" data-name="Layer 2"><g id="Layer_1-2" data-name="Layer 1"><ellipse class="cls-1" cx="11.4" cy="5.63" rx="6" ry="5.5"/><ellipse class="cls-1" cx="11.49" cy="5.66" rx="5.67" ry="5.2"/><ellipse class="cls-1" cx="11.58" cy="5.7" rx="5.34" ry="4.91"/><ellipse class="cls-1" cx="11.67" cy="5.74" rx="5" ry="4.61"/><ellipse class="cls-1" cx="11.76" cy="5.77" rx="4.67" ry="4.31"/><ellipse class="cls-1" cx="11.84" cy="5.81" rx="4.34" ry="4.02"/><ellipse class="cls-1" cx="11.93" cy="5.85" rx="4.01" ry="3.72"/><ellipse class="cls-1" cx="12.02" cy="5.88" rx="3.67" ry="3.42"/><ellipse class="cls-1" cx="12.11" cy="5.92" rx="3.34" ry="3.13"/><ellipse class="cls-1" cx="12.2" cy="5.96" rx="3.01" ry="2.83"/><ellipse class="cls-1" cx="12.29" cy="5.99" rx="2.68" ry="2.53"/><ellipse class="cls-1" cx="12.38" cy="6.03" rx="2.34" ry="2.24"/><path class="cls-1" d="M5.86,9.19.52,14.54a1.31,1.31,0,0,0,0,1.88l.63.63a1.31,1.31,0,0,0,1.88,0l5.56-5.56A5.83,5.83,0,0,1,5.86,9.19Z"/><path class="cls-2" d="M5.94,9.49l-4.69,4.7a1.16,1.16,0,0,0,0,1.65l.55.56a1.19,1.19,0,0,0,1.66,0l4.88-4.89A5.12,5.12,0,0,1,5.94,9.49Z"/><path class="cls-3" d="M6,9.79,2,13.84a1,1,0,0,0,0,1.42l.48.48a1,1,0,0,0,1.43,0l4.21-4.2A4.45,4.45,0,0,1,6,9.79Z"/><path class="cls-4" d="M6.1,10.09l-3.4,3.4a.84.84,0,0,0,0,1.19l.4.4a.86.86,0,0,0,1.21,0l3.53-3.52A3.81,3.81,0,0,1,6.1,10.09Z"/><path class="cls-5" d="M6.18,10.4,3.43,13.14a.67.67,0,0,0,0,1l.33.33a.7.7,0,0,0,1,0l2.86-2.85A3.09,3.09,0,0,1,6.18,10.4Z"/><path class="cls-6" d="M6.27,10.7,4.16,12.78a.53.53,0,0,0,0,.74l.25.25a.53.53,0,0,0,.74,0L7.34,11.6A2.31,2.31,0,0,1,6.27,10.7Z"/><path class="cls-7" d="M6.35,11,4.89,12.43a.36.36,0,0,0,0,.51l.17.17a.37.37,0,0,0,.52,0l1.51-1.49A1.61,1.61,0,0,1,6.35,11Z"/></g></g></svg>