<svg xmlns="http://www.w3.org/2000/svg" viewBox="0 0 21.5 12.11"><defs><style>.cls-1{fill:#33c0cc;}.cls-2{fill:#2998cf;}</style></defs><g id="Layer_2" data-name="Layer 2"><g id="Layer_1-2" data-name="Layer 1"><path class="cls-1" d="M.93,7c6.84-.08,13.78-.22,20.57,0C15,7.17,7.38,7.18.93,7Z"/><path class="cls-1" d="M.7,8.05A42.92,42.92,0,0,0,7.78,8a10.84,10.84,0,0,1,1.9-.38,13,13,0,0,1,3.88.17,35.52,35.52,0,0,0,7.71.23,24.87,24.87,0,0,1-7.75,0c-1-.15-2.12-.29-3.19-.34a11.32,11.32,0,0,0-2.52.47A24.52,24.52,0,0,1,.7,8.05Z"/><path class="cls-1" d="M.47,9.09a18.4,18.4,0,0,0,7.13,0,7.78,7.78,0,0,1,2.45-1,10.61,10.61,0,0,1,3.24.65,6.59,6.59,0,0,0,2.53.49A19.35,19.35,0,0,0,21,9.09a10.6,10.6,0,0,1-2.59.39c-1.73,0-3.59.2-5.22-.48a15.68,15.68,0,0,0-2.52-.61C9,8.1,7.51,9.74,5.69,9.55A15.46,15.46,0,0,1,.47,9.09Z"/><path class="cls-1" d="M.23,10.14a15.09,15.09,0,0,0,5.3.5A3.73,3.73,0,0,0,8,9.77a3,3,0,0,1,2.48-1c1.82.38,3.2,1.72,5.05,1.72a15.08,15.08,0,0,0,5.31-.38h0c-2.53.67-5.5,1-7.93-.16A11.28,11.28,0,0,0,10.4,9a2.73,2.73,0,0,0-2.33.87,3.94,3.94,0,0,1-2.52.89,14.47,14.47,0,0,1-5.32-.64Z"/><path class="cls-1" d="M0,11.18c2.46.54,5.82,1.64,7.8-.46C8.3,10,9.11,9.11,10.14,9.4c1.79.62,3,2.17,5,2.31a14,14,0,0,0,5.45-.53,12.45,12.45,0,0,1-5.48.69c-1.91-.08-3.32-1.65-5-2.23a1.56,1.56,0,0,0-1.23.21,5.86,5.86,0,0,0-.91,1c-2.06,2.16-5.48,1-7.95.33Z"/><path class="cls-1" d="M10.47,0C9.3.87,8.16,1.64,7,2.4l0-.13C7.51,3.5,7.88,4.76,8.33,6c-.2-.06,4.37-.08,4.32-.1l-.1.07c.43-1.24.87-2.48,1.33-3.71l0,.15C12.79,1.63,11.64.86,10.47,0Zm0,0c1.21.71,2.45,1.49,3.68,2.25-.46,1.3-.93,2.59-1.42,3.88h-.08L8.29,6.05c-.51-1.21-1-2.53-1.48-3.79C8,1.48,9.27.7,10.47,0Z"/><path class="cls-1" d="M10.59,1.68C10,2.19,9.35,2.62,8.74,3l0-.13C9,3.55,9.3,4.46,9.41,5c.78,0,1.57,0,2.36-.07L11.66,5c.23-.69.47-1.38.72-2.06l0,.14c-.61-.43-1.21-.87-1.84-1.37Zm0,0c.66.37,1.37.8,2.06,1.23-.25.75-.52,1.5-.8,2.24h-.08c-.8,0-1.59-.08-2.39-.08-.24-.7-.57-1.37-.81-2.06l0-.09c.68-.44,1.38-.88,2.05-1.24Z"/><polygon class="cls-2" points="10.63 2.5 9.27 3.46 9.79 5.01 11.48 5.01 12 3.46 10.63 2.5"/><path class="cls-1" d="M10.63,2.52l-1.3,1,0-.12L9.83,5c-.2-.06,1.69-.08,1.65-.1L11.37,5l.51-1.56,0,.14-1.3-1Zm0,0,1.44.87.08.05,0,.09-.54,1.55c0,.08,0,.08-.1.07L9.79,5.05h0V5L9.16,3.5l0-.08.07,0,1.43-.88Z"/></g></g></svg>