<svg xmlns="http://www.w3.org/2000/svg" viewBox="0 0 22.41 11.29"><defs><style>.cls-1{fill:none;stroke:#63c9d9;stroke-miterlimit:10;stroke-width:0.25px;}</style></defs><g id="Layer_2" data-name="Layer 2"><g id="Layer_1-2" data-name="Layer 1"><ellipse class="cls-1" cx="12.08" cy="5.63" rx="6" ry="5.5"/><ellipse class="cls-1" cx="11.99" cy="5.66" rx="5.67" ry="5.2"/><ellipse class="cls-1" cx="11.9" cy="5.7" rx="5.34" ry="4.91"/><ellipse class="cls-1" cx="11.81" cy="5.74" rx="5" ry="4.61"/><ellipse class="cls-1" cx="11.72" cy="5.77" rx="4.67" ry="4.31"/><ellipse class="cls-1" cx="11.63" cy="5.81" rx="4.34" ry="4.02"/><ellipse class="cls-1" cx="11.54" cy="5.85" rx="4.01" ry="3.72"/><ellipse class="cls-1" cx="11.45" cy="5.88" rx="3.67" ry="3.42"/><ellipse class="cls-1" cx="11.36" cy="5.92" rx="3.34" ry="3.13"/><ellipse class="cls-1" cx="11.27" cy="5.96" rx="3.01" ry="2.83"/><ellipse class="cls-1" cx="11.18" cy="5.99" rx="2.68" ry="2.53"/><ellipse class="cls-1" cx="11.09" cy="6.03" rx="2.34" ry="2.24"/><ellipse class="cls-1" cx="12.58" cy="6.36" rx="2.19" ry="9.5" transform="translate(2.06 15.74) rotate(-68.53)"/><ellipse class="cls-1" cx="12.12" cy="6.18" rx="2.58" ry="10.28" transform="translate(1.94 15.19) rotate(-68.53)"/><ellipse class="cls-1" cx="11.66" cy="5.99" rx="2.98" ry="11.05" transform="translate(1.81 14.65) rotate(-68.53)"/><ellipse class="cls-1" cx="11.2" cy="5.81" rx="3.37" ry="11.83" transform="translate(1.69 14.11) rotate(-68.53)"/></g></g></svg>