<svg xmlns="http://www.w3.org/2000/svg" xmlns:xlink="http://www.w3.org/1999/xlink" viewBox="0 0 39.48 14.81"><defs><style>.cls-1{fill:none;stroke:#63c9d9;stroke-miterlimit:10;stroke-width:0.25px;}.cls-2,.cls-3,.cls-4{opacity:0.56;}.cls-2{fill:url(#linear-gradient);}.cls-3{fill:url(#linear-gradient-2);}.cls-4{fill:url(#linear-gradient-3);}</style><linearGradient id="linear-gradient" x1="5.48" y1="7.1" x2="30.48" y2="7.1" gradientUnits="userSpaceOnUse"><stop offset="0.47" stop-color="#07bfe8"/><stop offset="0.48" stop-color="#16bae5" stop-opacity="0.85"/><stop offset="0.5" stop-color="#27b3e1" stop-opacity="0.68"/><stop offset="0.53" stop-color="#37addd" stop-opacity="0.51"/><stop offset="0.55" stop-color="#45a8da" stop-opacity="0.37"/><stop offset="0.58" stop-color="#51a3d7" stop-opacity="0.26"/><stop offset="0.61" stop-color="#5aa0d5" stop-opacity="0.16"/><stop offset="0.65" stop-color="#619dd3" stop-opacity="0.09"/><stop offset="0.7" stop-color="#669bd2" stop-opacity="0.04"/><stop offset="0.76" stop-color="#699ad1" stop-opacity="0.01"/><stop offset="0.94" stop-color="#6a9ad1" stop-opacity="0"/></linearGradient><linearGradient id="linear-gradient-2" x1="12.48" y1="11.1" x2="37.48" y2="11.1" xlink:href="#linear-gradient"/><linearGradient id="linear-gradient-3" x1="14.48" y1="3.1" x2="39.48" y2="3.1" xlink:href="#linear-gradient"/></defs><g id="Layer_2" data-name="Layer 2"><g id="Layer_1-2" data-name="Layer 1"><path class="cls-1" d="M.13,4.82V9.38a2.41,2.41,0,0,0,1.2,2.08l4,2.28a2.38,2.38,0,0,0,2.39,0l4-2.28a2.41,2.41,0,0,0,1.2-2.08V4.82a2.41,2.41,0,0,0-1.2-2.08L7.67.46a2.38,2.38,0,0,0-2.39,0l-4,2.28A2.4,2.4,0,0,0,.13,4.82Z"/><path class="cls-1" d="M1.33,5.25v3.9a1.9,1.9,0,0,0,.95,1.65l3.43,1.95a1.9,1.9,0,0,0,1.9,0L11,10.8a1.91,1.91,0,0,0,1-1.65V5.25A1.91,1.91,0,0,0,11,3.6l-3.42-2a2,2,0,0,0-1.9,0l-3.43,2A1.9,1.9,0,0,0,1.33,5.25Z"/><path class="cls-1" d="M2.53,5.68V8.91a1.4,1.4,0,0,0,.71,1.22l2.9,1.63a1.4,1.4,0,0,0,1.4,0l2.9-1.63a1.4,1.4,0,0,0,.71-1.22V5.68a1.41,1.41,0,0,0-.71-1.22L7.54,2.83a1.4,1.4,0,0,0-1.4,0L3.24,4.46A1.41,1.41,0,0,0,2.53,5.68Z"/><path class="cls-1" d="M3.73,6.12V8.67a.9.9,0,0,0,.47.8l2.38,1.31a.94.94,0,0,0,.89,0L9.85,9.47a.92.92,0,0,0,.46-.8V6.12a.93.93,0,0,0-.46-.8L7.47,4a.89.89,0,0,0-.89,0L4.2,5.32A.92.92,0,0,0,3.73,6.12Z"/><path class="cls-1" d="M4.94,6.55V8.44a.4.4,0,0,0,.22.37L7,9.79a.45.45,0,0,0,.39,0l1.85-1a.41.41,0,0,0,.23-.37V6.55a.41.41,0,0,0-.23-.37L7.4,5.2A.44.44,0,0,0,7,5.2l-1.85,1A.4.4,0,0,0,4.94,6.55Z"/><path class="cls-1" d="M36.2,4.94V9.87A2.45,2.45,0,0,1,35,12l-3.9,2.36a2.46,2.46,0,0,1-2.54,0L24.68,12a2.45,2.45,0,0,1-1.18-2.1V4.94a2.47,2.47,0,0,1,1.18-2.1L28.58.48a2.46,2.46,0,0,1,2.54,0L35,2.84A2.47,2.47,0,0,1,36.2,4.94Z"/><path class="cls-1" d="M35,5.41v4.2a2,2,0,0,1-1,1.67l-3.38,2a1.91,1.91,0,0,1-2,0l-3.38-2a1.94,1.94,0,0,1-.94-1.67V5.41a1.94,1.94,0,0,1,.94-1.67l3.38-2a1.91,1.91,0,0,1,2,0l3.38,2A2,2,0,0,1,35,5.41Z"/><path class="cls-1" d="M33.79,5.88V9.35a1.43,1.43,0,0,1-.7,1.24l-2.87,1.69a1.45,1.45,0,0,1-1.48,0l-2.86-1.69a1.44,1.44,0,0,1-.71-1.24V5.88a1.44,1.44,0,0,1,.71-1.24L28.74,3a1.45,1.45,0,0,1,1.48,0l2.87,1.69A1.43,1.43,0,0,1,33.79,5.88Z"/><path class="cls-1" d="M32.59,6.35V9.09a.91.91,0,0,1-.46.8l-2.35,1.36a1,1,0,0,1-1,0L26.47,9.89a.93.93,0,0,1-.46-.8V6.35a1,1,0,0,1,.46-.81l2.36-1.35a.9.9,0,0,1,1,0l2.35,1.35A.94.94,0,0,1,32.59,6.35Z"/><path class="cls-1" d="M31.39,6.82v2a.44.44,0,0,1-.22.38l-1.84,1a.45.45,0,0,1-.42,0l-1.84-1a.42.42,0,0,1-.22-.38v-2a.43.43,0,0,1,.22-.38l1.84-1a.45.45,0,0,1,.42,0l1.84,1A.45.45,0,0,1,31.39,6.82Z"/><rect class="cls-2" x="5.48" y="6.1" width="25" height="2" rx="0.83"/><rect class="cls-3" x="12.48" y="10.1" width="25" height="2" rx="0.83"/><rect class="cls-4" x="14.48" y="2.1" width="25" height="2" rx="0.83"/></g></g></svg>