<svg xmlns="http://www.w3.org/2000/svg" viewBox="0 0 16.13 11.57"><defs><style>.cls-1,.cls-2,.cls-3,.cls-4,.cls-5,.cls-6,.cls-7{fill:none;stroke-miterlimit:10;}.cls-1{stroke:#33c0cc;}.cls-1,.cls-2{stroke-width:0.25px;}.cls-2,.cls-3,.cls-4,.cls-5,.cls-6,.cls-7{stroke:#63c9d9;}.cls-3{stroke-width:0.23px;}.cls-4{stroke-width:0.21px;}.cls-5{stroke-width:0.19px;}.cls-6{stroke-width:0.17px;}.cls-7{stroke-width:0.15px;}</style></defs><g id="Layer_2" data-name="Layer 2"><g id="Layer_1-2" data-name="Layer 1"><path class="cls-1" d="M7.61,5.59,5,10.1a.9.9,0,0,0,.78,1.34H11a.9.9,0,0,0,.78-1.34L9.16,5.59A.89.89,0,0,0,7.61,5.59Z"/><path class="cls-1" d="M7.79,6.43l-2.1,3.74a.73.73,0,0,0,.64,1.09h4.19a.73.73,0,0,0,.64-1.09L9.06,6.43A.73.73,0,0,0,7.79,6.43Z"/><path class="cls-1" d="M8,7.28l-1.6,3a.57.57,0,0,0,.5.84h3.19a.57.57,0,0,0,.5-.84L9,7.28A.57.57,0,0,0,8,7.28Z"/><path class="cls-1" d="M8.15,8.12l-1.1,2.19a.41.41,0,0,0,.36.59H9.6a.41.41,0,0,0,.36-.59L8.87,8.12A.4.4,0,0,0,8.15,8.12Z"/><path class="cls-1" d="M8.32,9l-.59,1.43a.24.24,0,0,0,.23.33H9.14a.24.24,0,0,0,.23-.33L8.77,9A.24.24,0,0,0,8.32,9Z"/><ellipse class="cls-2" cx="15.01" cy="6.69" rx="0.99" ry="1.25" transform="translate(-0.37 0.89) rotate(-3.36)"/><ellipse class="cls-3" cx="14.91" cy="6.79" rx="0.82" ry="1.04" transform="translate(-0.44 1.05) rotate(-3.99)"/><ellipse class="cls-4" cx="14.82" cy="6.89" rx="0.65" ry="0.83" transform="translate(-0.52 1.26) rotate(-4.78)"/><ellipse class="cls-5" cx="14.72" cy="6.99" rx="0.48" ry="0.63" transform="translate(-0.62 1.5) rotate(-5.7)"/><ellipse class="cls-6" cx="14.62" cy="7.08" rx="0.32" ry="0.44" transform="translate(-0.69 1.64) rotate(-6.28)"/><ellipse class="cls-7" cx="14.53" cy="7.18" rx="0.17" ry="0.27" transform="translate(-0.38 0.83) rotate(-3.23)"/><ellipse class="cls-2" cx="11.12" cy="1.37" rx="0.99" ry="1.25" transform="translate(-0.06 0.65) rotate(-3.36)"/><ellipse class="cls-3" cx="11.02" cy="1.47" rx="0.82" ry="1.04" transform="translate(-0.08 0.77) rotate(-3.99)"/><ellipse class="cls-4" cx="10.92" cy="1.57" rx="0.65" ry="0.83" transform="translate(-0.09 0.92) rotate(-4.78)"/><ellipse class="cls-5" cx="10.83" cy="1.67" rx="0.48" ry="0.63" transform="translate(-0.11 1.08) rotate(-5.7)"/><ellipse class="cls-6" cx="10.73" cy="1.76" rx="0.32" ry="0.44" transform="translate(-0.13 1.18) rotate(-6.28)"/><ellipse class="cls-7" cx="10.64" cy="1.86" rx="0.17" ry="0.27" transform="translate(-0.09 0.6) rotate(-3.23)"/><ellipse class="cls-2" cx="5.12" cy="1.37" rx="0.99" ry="1.25" transform="translate(-0.07 0.3) rotate(-3.36)"/><ellipse class="cls-3" cx="5.02" cy="1.47" rx="0.82" ry="1.04" transform="translate(-0.09 0.35) rotate(-3.99)"/><ellipse class="cls-4" cx="4.92" cy="1.57" rx="0.65" ry="0.83" transform="translate(-0.11 0.42) rotate(-4.78)"/><ellipse class="cls-5" cx="4.83" cy="1.67" rx="0.48" ry="0.63" transform="translate(-0.14 0.49) rotate(-5.7)"/><ellipse class="cls-6" cx="4.73" cy="1.76" rx="0.32" ry="0.44" transform="translate(-0.16 0.53) rotate(-6.28)"/><ellipse class="cls-7" cx="4.64" cy="1.86" rx="0.17" ry="0.27" transform="translate(-0.1 0.26) rotate(-3.23)"/><ellipse class="cls-2" cx="1.12" cy="6.37" rx="0.99" ry="1.25" transform="translate(-0.37 0.08) rotate(-3.36)"/><ellipse class="cls-3" cx="1.02" cy="6.47" rx="0.82" ry="1.04" transform="translate(-0.45 0.09) rotate(-3.99)"/><ellipse class="cls-4" cx="0.92" cy="6.57" rx="0.65" ry="0.83" transform="translate(-0.54 0.1) rotate(-4.78)"/><ellipse class="cls-5" cx="0.83" cy="6.67" rx="0.48" ry="0.63" transform="translate(-0.66 0.12) rotate(-5.7)"/><ellipse class="cls-6" cx="0.73" cy="6.76" rx="0.32" ry="0.44" transform="translate(-0.74 0.12) rotate(-6.28)"/><ellipse class="cls-7" cx="0.64" cy="6.86" rx="0.17" ry="0.27" transform="translate(-0.39 0.05) rotate(-3.23)"/></g></g></svg>