<svg xmlns="http://www.w3.org/2000/svg" viewBox="0 0 36.25 36.25"><defs><style>.cls-1{fill:none;stroke:#33c0cc;stroke-miterlimit:10;stroke-width:0.25px;}</style></defs><g id="Layer_2" data-name="Layer 2"><g id="Layer_1-2" data-name="Layer 1"><rect class="cls-1" x="0.13" y="14.13" width="8" height="8" rx="2.35"/><rect class="cls-1" x="0.73" y="14.73" width="7" height="7" rx="2.05"/><rect class="cls-1" x="1.33" y="15.33" width="6" height="6" rx="1.76"/><rect class="cls-1" x="1.92" y="15.92" width="5" height="5" rx="1.47"/><rect class="cls-1" x="2.52" y="16.52" width="4" height="4" rx="1.17"/><rect class="cls-1" x="3.13" y="17.13" width="3" height="3" rx="0.88"/><circle class="cls-1" cx="18.12" cy="18.13" r="8"/><ellipse class="cls-1" cx="18.2" cy="18.22" rx="6.72" ry="6.69"/><ellipse class="cls-1" cx="18.28" cy="18.31" rx="5.45" ry="5.39"/><ellipse class="cls-1" cx="18.36" cy="18.41" rx="4.17" ry="4.08"/><ellipse class="cls-1" cx="18.43" cy="18.5" rx="2.89" ry="2.78"/><ellipse class="cls-1" cx="18.51" cy="18.6" rx="1.61" ry="1.47"/><rect class="cls-1" x="13.13" y="0.12" width="8" height="8" rx="2.35"/><rect class="cls-1" x="13.73" y="0.73" width="7" height="7" rx="2.05"/><rect class="cls-1" x="14.33" y="1.33" width="6" height="6" rx="1.76"/><rect class="cls-1" x="14.92" y="1.92" width="5" height="5" rx="1.47"/><rect class="cls-1" x="15.52" y="2.52" width="4" height="4" rx="1.17"/><rect class="cls-1" x="16.13" y="3.13" width="3" height="3" rx="0.88"/><rect class="cls-1" x="28.13" y="14.13" width="8" height="8" rx="2.35"/><rect class="cls-1" x="28.73" y="14.73" width="7" height="7" rx="2.05"/><rect class="cls-1" x="29.33" y="15.33" width="6" height="6" rx="1.76"/><rect class="cls-1" x="29.92" y="15.92" width="5" height="5" rx="1.47"/><rect class="cls-1" x="30.52" y="16.52" width="4" height="4" rx="1.17"/><rect class="cls-1" x="31.13" y="17.13" width="3" height="3" rx="0.88"/><rect class="cls-1" x="15.13" y="28.13" width="8" height="8" rx="2.35"/><rect class="cls-1" x="15.73" y="28.73" width="7" height="7" rx="2.05"/><rect class="cls-1" x="16.33" y="29.33" width="6" height="6" rx="1.76"/><rect class="cls-1" x="16.92" y="29.92" width="5" height="5" rx="1.47"/><rect class="cls-1" x="17.52" y="30.52" width="4" height="4" rx="1.17"/><rect class="cls-1" x="18.13" y="31.13" width="3" height="3" rx="0.88"/></g></g></svg>