<svg xmlns="http://www.w3.org/2000/svg" viewBox="0 0 9.89 14.08"><defs><style>.cls-1,.cls-3,.cls-4,.cls-5,.cls-6,.cls-7,.cls-8{fill:none;stroke:#63c9d9;stroke-miterlimit:10;}.cls-1{stroke-width:0.5px;}.cls-2{fill:#63c9d9;}.cls-3{stroke-width:0.43px;}.cls-4{stroke-width:0.36px;}.cls-5{stroke-width:0.29px;}.cls-6{stroke-width:0.21px;}.cls-7{stroke-width:0.14px;}.cls-8{stroke-width:0.07px;}</style></defs><g id="Layer_2" data-name="Layer 2"><g id="Layer_1-2" data-name="Layer 1"><path class="cls-1" d="M9.24,6.35,2.45.53a1.15,1.15,0,0,0-1.9.84L.25,12.64a1.16,1.16,0,0,0,1.86.95L9.19,8.14A1.16,1.16,0,0,0,9.24,6.35Z"/><path class="cls-2" d="M.71,12.06A27.62,27.62,0,0,0,.79,9c0-.8,0-1.59,0-2.39S.9,4.77.9,3.82c0-.44,0-.87,0-1.31a5,5,0,0,1,0-.67,1,1,0,0,1,1.65-.61c.59.42,1.11,1,1.66,1.46,1,.83,1.9,1.65,2.86,2.46.56.48,2,1.35,1.82,2.2C8.81,8,8,8.4,7.53,8.75l-.86.63c-.88.65-1.77,1.3-2.63,2l-1,.8c-.24.19-.47.39-.72.57a1,1,0,0,1-1.63-.67.07.07,0,0,0-.15,0,1.13,1.13,0,0,0,1.28,1.07c.53-.08,1-.62,1.42-.94C4,11.59,4.75,11,5.52,10.41S7.27,9.14,8.13,8.47c.46-.35,1-.71,1-1.35A1.43,1.43,0,0,0,8.39,6C6.6,4.58,4.86,3.07,3.18,1.53,2.83,1.21,2.5.8,2,.79A1.14,1.14,0,0,0,.81,1.89C.69,3,.75,4.11.74,5.2S.62,7.51.63,8.67a25.55,25.55,0,0,1-.07,3.39c0,.1.14.1.15,0Z"/><path class="cls-3" d="M.63,12.06c0-.06.1-3.24.08-3.31s0-1.43,0-1.46S.79,5.91.79,5.88s0-2,0-2.07,0-2,.08-2A1,1,0,0,1,1.83.87a.88.88,0,0,1,.79.26s.47.41.47.42S8.32,6.09,8.43,6.11l.3.25A1.1,1.1,0,0,1,9.06,7a1.25,1.25,0,0,1-.4.94S7.15,9.14,7.12,9.15s-1.64,1.21-1.67,1.22S3.82,11.63,3.8,11.66s-1.46,1.16-1.48,1.18A.61.61,0,0,1,2.1,13a1,1,0,0,1-1.46-.91"/><path class="cls-2" d="M1.09,11.5a15.62,15.62,0,0,0,.07-2.65c0-.72,0-1.43,0-2.15a25.26,25.26,0,0,0,.05-2.61c0-.4,0-.79,0-1.19a3.08,3.08,0,0,1,.06-.61A.86.86,0,0,1,2.75,1.8c.51.37,1,.89,1.43,1.31Q5.44,4.22,6.73,5.3c.29.24.58.49.88.72s.64.4.78.81c.24.69-.75,1.26-1.19,1.6-.26.2-.53.38-.8.56C5.59,9.55,4.8,10.1,4,10.72c-.29.25-.57.51-.87.75s-.41.36-.63.52a.86.86,0,0,1-1.44-.51c0-.1-.16-.1-.15,0a1,1,0,0,0,1.15.89,3.11,3.11,0,0,0,1.18-.79C4,11,4.61,10.41,5.34,9.91S6.89,8.86,7.63,8.29c.41-.33.91-.66.93-1.24A1.18,1.18,0,0,0,7.9,6a30.11,30.11,0,0,1-2.39-2c-.75-.64-1.51-1.27-2.2-2-.31-.3-.6-.67-1.05-.71a1,1,0,0,0-1.11.9,16.4,16.4,0,0,0,0,2.89C1.09,6.25.94,7.3,1,8.36c0,.45,0,.9,0,1.35A12.75,12.75,0,0,1,1,11.46c0,.1.12.14.14,0Z"/><path class="cls-4" d="M1,11.48c0-.13.09-2.86.05-3s0-1.26,0-1.32S1.15,6,1.16,5.9s0-1.78,0-1.86a11.71,11.71,0,0,1,.1-1.8.87.87,0,0,1,.85-.76.82.82,0,0,1,.7.25s.4.36.41.38c.11.2,4.52,4,4.73,4.05a2.78,2.78,0,0,1,.27.21.93.93,0,0,1,.28.6,1.17,1.17,0,0,1-.37.83s-1.3,1-1.36,1-1.44,1-1.5,1S3.85,11,3.82,11s-1.25,1-1.29,1.07a.47.47,0,0,1-.19.12A.9.9,0,0,1,1,11.48"/><path class="cls-2" d="M1.47,10.92a10.26,10.26,0,0,0,.06-2.35,17,17,0,0,1,0-1.89,12.19,12.19,0,0,0,.05-2.34,7.36,7.36,0,0,1,0-1,2.82,2.82,0,0,1,.09-.57.75.75,0,0,1,1.26-.33c.44.36.83.83,1.26,1.22.71.64,1.44,1.27,2.18,1.88.26.21.53.43.81.63s.69.37.65.91-.71.9-1.08,1.18a8.18,8.18,0,0,1-.69.45A18,18,0,0,0,4,10.15l-.79.73-.46.4a.74.74,0,0,1-1.22-.41c0-.09-.16,0-.15,0a.87.87,0,0,0,1,.7c.41-.07.74-.46,1.05-.72A13.73,13.73,0,0,1,5.2,9.39,20.54,20.54,0,0,0,7.28,8,1.43,1.43,0,0,0,8,6.91a1,1,0,0,0-.59-.82A18.25,18.25,0,0,1,5.23,4.34,22.34,22.34,0,0,1,3.4,2.66a1.45,1.45,0,0,0-1-.65.9.9,0,0,0-.88.7,8.58,8.58,0,0,0,0,2.53c0,1-.19,1.88-.12,2.83,0,.42,0,.82,0,1.24a10.26,10.26,0,0,1-.06,1.57c0,.1.13.14.14,0Z"/><path class="cls-5" d="M1.4,10.9a19.85,19.85,0,0,0,0-2.67,11.62,11.62,0,0,1,0-1.18c0-.08.1-1,.11-1.12a13.26,13.26,0,0,0,0-1.67,5.46,5.46,0,0,1,.13-1.59.75.75,0,0,1,.77-.59A.83.83,0,0,1,3,2.33s.33.32.35.34A34.5,34.5,0,0,0,7.46,6.2a2.23,2.23,0,0,1,.24.19.72.72,0,0,1,.22.52,1.12,1.12,0,0,1-.33.72,14.43,14.43,0,0,1-1.19.91c-.09,0-1.24.8-1.32.83a12.26,12.26,0,0,0-1.25,1c0,.08-1,.9-1.08,1a.76.76,0,0,1-.16.11.78.78,0,0,1-1.17-.56"/><path class="cls-2" d="M1.86,10.34c.25-1.24-.16-2.51,0-3.75a7,7,0,0,0,0-2c-.08-.56-.16-1.92.73-1.83.36,0,.59.36.81.62A7.66,7.66,0,0,0,4,4C4.6,4.51,5.21,5,5.83,5.55c.24.19.48.38.73.55s.55.25.64.44c.37.77-.89,1.45-1.42,1.75A8.34,8.34,0,0,0,4,9.47c-.23.2-.43.44-.66.66s-.27.26-.42.38a.63.63,0,0,1-1.06-.22c0-.09-.18,0-.15,0a.75.75,0,0,0,.88.52c.36-.07.63-.41.89-.65A7.58,7.58,0,0,1,5,8.89C5.79,8.48,8.58,7,6.87,6.12A10.79,10.79,0,0,1,5,4.6,16.32,16.32,0,0,1,3.48,3.19c-.26-.31-.55-.62-1-.57a.8.8,0,0,0-.67.58,5.57,5.57,0,0,0,0,2.19c0,.83-.23,1.61-.12,2.45a7.73,7.73,0,0,1,.07,1.08,7.06,7.06,0,0,1-.06,1.38c0,.1.13.14.15,0Z"/><path class="cls-6" d="M1.78,10.32A12.41,12.41,0,0,0,1.8,8a5.88,5.88,0,0,1-.05-1c0-.11.11-.87.14-1a8.87,8.87,0,0,0-.07-1.46c-.05-.16,0-1.33.14-1.39a.64.64,0,0,1,.69-.41.69.69,0,0,1,.49.25,4.11,4.11,0,0,1,.29.3A19.87,19.87,0,0,0,7,6.25a1.37,1.37,0,0,1,.21.15.59.59,0,0,1,.15.45,1,1,0,0,1-.29.61,8.16,8.16,0,0,1-1,.78c-.12,0-1,.59-1.16.63a6.28,6.28,0,0,0-1,.88c0,.1-.8.77-.88.85a.38.38,0,0,1-.13.09.67.67,0,0,1-1-.38"/><path class="cls-2" d="M2.24,9.76A6.19,6.19,0,0,0,2.29,8a5,5,0,0,1-.07-1.55,3.8,3.8,0,0,0,.12-.74,5,5,0,0,0-.08-.87,2.48,2.48,0,0,1,0-.77c0-.43.3-1,.85-.69A2.22,2.22,0,0,1,3.59,4a5.45,5.45,0,0,0,.46.5A14.7,14.7,0,0,0,5.51,5.77a5.35,5.35,0,0,0,.62.44c.22.13.51.17.57.48s-.39.71-.64.9A2.54,2.54,0,0,1,5.42,8a4.34,4.34,0,0,0-1.48.94c-.19.2-.35.42-.54.62s-.85.77-1.14.17c0-.09-.17,0-.13.07a.63.63,0,0,0,.73.34,1.51,1.51,0,0,0,.7-.53,4.43,4.43,0,0,1,1.3-1.18,5.69,5.69,0,0,0,1.58-.92,1,1,0,0,0,.4-.88c0-.26-.25-.32-.46-.42A6.3,6.3,0,0,1,4.77,5,8.73,8.73,0,0,1,3.58,3.72a1.14,1.14,0,0,0-.79-.52.7.7,0,0,0-.62.39c-.29.53,0,1.24,0,1.79a3.46,3.46,0,0,1-.1,1.11,2.91,2.91,0,0,0,0,1A6.56,6.56,0,0,1,2.1,9.72c0,.1.12.14.14,0Z"/><path class="cls-7" d="M2.17,9.74a7.74,7.74,0,0,0,0-2,3.31,3.31,0,0,1-.07-.89c0-.14.13-.7.16-.84a4.84,4.84,0,0,0-.1-1.26c-.06-.2,0-1.1.16-1.18a.54.54,0,0,1,.62-.23.61.61,0,0,1,.38.24,2.68,2.68,0,0,1,.23.26,10.9,10.9,0,0,0,3,2.49,1.22,1.22,0,0,1,.19.12.48.48,0,0,1,.09.38,1,1,0,0,1-.26.5,3.56,3.56,0,0,1-.82.64c-.15,0-.84.39-1,.44a3.69,3.69,0,0,0-.84.74c-.07.12-.59.64-.68.74l-.11.08a.59.59,0,0,1-.88-.2"/><path class="cls-2" d="M2.62,9.18a4.2,4.2,0,0,0,0-1.37,3.2,3.2,0,0,1-.11-1.34,3.8,3.8,0,0,0,.15-.58,2.9,2.9,0,0,0-.09-.72c-.09-.36-.27-1.1.25-1.24s.8.63,1.06.92A7,7,0,0,0,5,5.84a4.67,4.67,0,0,0,.51.36c.15.08.31.13.46.2.44.24-.06.73-.27.92A1.59,1.59,0,0,1,5,7.63a3.33,3.33,0,0,0-.63.21,1.64,1.64,0,0,0-.51.47c-.24.3-.78,1.34-1.26.78-.07-.07-.17,0-.11.11a.56.56,0,0,0,.61.15,1.06,1.06,0,0,0,.49-.42c.33-.41.56-.88,1.08-1,.23-.08.48-.12.7-.21A1.68,1.68,0,0,0,6,7.21a.93.93,0,0,0,.29-.7c-.06-.22-.28-.23-.45-.3a4.71,4.71,0,0,1-1.35-1,12.63,12.63,0,0,1-1-1.13c-.27-.34-.86-.47-1.08,0a2.19,2.19,0,0,0,.06,1.36,1.46,1.46,0,0,1,0,.55,4,4,0,0,1-.14.46,1.56,1.56,0,0,0,0,.83,4.28,4.28,0,0,1,.07,1.85c0,.1.12.14.14,0Z"/><path class="cls-8" d="M2.55,9.16a4.33,4.33,0,0,0,0-1.72,2.37,2.37,0,0,1-.09-.75c0-.17.15-.53.19-.7a2.93,2.93,0,0,0-.14-1c-.07-.24,0-.89.19-1a.45.45,0,0,1,.53,0,.71.71,0,0,1,.29.23c0,.05.14.17.17.22A5.73,5.73,0,0,0,6,6.34a.51.51,0,0,1,.16.09.32.32,0,0,1,0,.3,1.22,1.22,0,0,1-.22.4,2,2,0,0,1-.65.5c-.18,0-.64.18-.81.24a1.87,1.87,0,0,0-.65.6,4.19,4.19,0,0,1-.48.63.46.46,0,0,1-.07.07.52.52,0,0,1-.74,0"/><path class="cls-2" d="M3,8.6A2.62,2.62,0,0,0,3,7.52,3.29,3.29,0,0,0,2.89,7,.83.83,0,0,1,3,6.27a1.13,1.13,0,0,0,0-.95,1.24,1.24,0,0,1-.1-.5c0-.27.23-.47.5-.32a1.16,1.16,0,0,1,.35.44A4.53,4.53,0,0,0,4,5.4a3.18,3.18,0,0,0,.66.66,2.26,2.26,0,0,0,.42.26,1.15,1.15,0,0,0,.17.06,2.76,2.76,0,0,1,.27.08h0v.16a.53.53,0,0,1-.06.1l-.14.21a.7.7,0,0,1-.56.33,1.28,1.28,0,0,0-.55.05.81.81,0,0,0-.32.29c-.2.29-.41,1.13-.92.88-.09,0-.16.09-.08.13a.63.63,0,0,0,.81-.33c.1-.17.17-.36.27-.52a.85.85,0,0,1,.25-.28.83.83,0,0,1,.46-.07.93.93,0,0,0,.84-.51c.08-.11.22-.29.19-.44s-.2-.15-.33-.18a2.38,2.38,0,0,1-1.08-.71,3.28,3.28,0,0,1-.4-.52c-.11-.17-.2-.35-.32-.51s-.58-.38-.8-.09a.93.93,0,0,0,0,.9,1,1,0,0,1,0,.89.84.84,0,0,0-.11.58c0,.27.17.52.21.79a2.7,2.7,0,0,1-.05.94c0,.1.13.14.15,0Z"/></g></g></svg>