<svg xmlns="http://www.w3.org/2000/svg" viewBox="0 0 16 15.36"><defs><style>.cls-1,.cls-2,.cls-3,.cls-4,.cls-5,.cls-6,.cls-7{fill:none;stroke:#63c9d9;stroke-miterlimit:10;}.cls-1{stroke-width:0.15px;}.cls-2{stroke-width:0.13px;}.cls-3{stroke-width:0.12px;}.cls-4{stroke-width:0.1px;}.cls-5{stroke-width:0.08px;}.cls-6{stroke-width:0.07px;}.cls-7{stroke-width:0.05px;}</style></defs><g id="Layer_2" data-name="Layer 2"><g id="Layer_1-2" data-name="Layer 1"><polygon class="cls-1" points="15.55 0.53 0.11 11.66 3.25 15.05 15.55 0.53"/><polygon class="cls-2" points="13.78 2.17 0.51 11.68 3.26 14.65 13.78 2.17"/><polygon class="cls-3" points="12.01 3.81 0.91 11.71 3.27 14.25 12.01 3.81"/><polygon class="cls-4" points="10.24 5.44 1.31 11.73 3.27 13.85 10.24 5.44"/><polygon class="cls-5" points="8.47 7.08 1.71 11.75 3.28 13.45 8.47 7.08"/><polygon class="cls-6" points="6.7 8.71 2.11 11.78 3.29 13.05 6.7 8.71"/><polygon class="cls-7" points="4.93 10.35 2.51 11.8 3.3 12.65 4.93 10.35"/><rect class="cls-1" x="6.03" y="-0.81" width="3.68" height="16.97" transform="translate(-3.11 7.15) rotate(-41.54)"/><rect class="cls-1" x="6.43" y="-0.09" width="3.23" height="15.61" transform="translate(-3.09 7.28) rotate(-41.54)"/><rect class="cls-1" x="6.84" y="0.63" width="2.77" height="14.24" transform="translate(-3.07 7.4) rotate(-41.54)"/><rect class="cls-1" x="7.24" y="1.34" width="2.32" height="12.88" transform="translate(-3.05 7.53) rotate(-41.54)"/><rect class="cls-1" x="7.65" y="2.06" width="1.87" height="11.52" transform="translate(-3.03 7.65) rotate(-41.54)"/><rect class="cls-1" x="8.05" y="2.78" width="1.41" height="10.15" transform="translate(-3 7.78) rotate(-41.54)"/><rect class="cls-1" x="8.45" y="3.49" width="0.96" height="8.79" transform="translate(-2.98 7.91) rotate(-41.54)"/></g></g></svg>