<svg xmlns="http://www.w3.org/2000/svg" viewBox="0 0 17.35 21.09"><defs><style>.cls-1{fill:none;stroke:#33c0cc;stroke-miterlimit:10;stroke-width:0.15px;}</style></defs><g id="Layer_2" data-name="Layer 2"><g id="Layer_1-2" data-name="Layer 1"><path class="cls-1" d="M8.67.3,9.78,4.64A.66.66,0,0,0,10.85,5l3-2.7L12.53,6.67a.64.64,0,0,0,.65.83l3.94-.12L13.75,10a.64.64,0,0,0,0,1l3.37,2.66-3.94-.13a.65.65,0,0,0-.65.83l1.36,4.42-3-2.7a.65.65,0,0,0-1.07.32L8.67,20.78,7.56,16.45a.65.65,0,0,0-1.06-.32l-3,2.7,1.36-4.42a.64.64,0,0,0-.64-.83l-3.94.13L3.6,11.05a.65.65,0,0,0,0-1L.23,7.38l3.94.12a.64.64,0,0,0,.64-.83L3.45,2.26,6.5,5a.65.65,0,0,0,1.06-.32Z"/><path class="cls-1" d="M4.57,3.58,7.12,5.85A.62.62,0,0,0,7.4,6,.56.56,0,0,0,8,5.58L9,2l.9,3.66v0a.57.57,0,0,0,.9.21l2.56-2.25-1.18,3.7a.51.51,0,0,0,0,.3.56.56,0,0,0,.55.38L16,7.87l-2.84,2.21a.54.54,0,0,0,0,.83L16,13.15h0L12.65,13a.55.55,0,0,0-.57.46.38.38,0,0,0,0,.21l1.11,3.71-2.55-2.27a.62.62,0,0,0-.28-.14.56.56,0,0,0-.6.42l-1,3.62-.91-3.66v0a.57.57,0,0,0-.9-.21L4.45,17.41l1.18-3.7a.62.62,0,0,0,0-.3A.56.56,0,0,0,5.09,13l-3.31.1,2.84-2.21a.54.54,0,0,0,0-.83L1.83,7.85h0L5.13,8a.56.56,0,0,0,.58-.46.65.65,0,0,0,0-.2Z"/><path class="cls-1" d="M5.69,4.9,7.75,6.75A.51.51,0,0,0,8,6.86a.47.47,0,0,0,.47-.35L9.26,3.6l.69,3v0c.08.27.51.31.72.12l2.09-1.79-1,3a.49.49,0,0,0,0,.24.47.47,0,0,0,.45.29l2.69-.08-2.32,1.77a.44.44,0,0,0-.07.64l2.29,1.83h0l-2.67-.1a.47.47,0,0,0-.47.35.38.38,0,0,0,0,.15l.87,3-2.06-1.85a.51.51,0,0,0-.22-.11.47.47,0,0,0-.47.35L9,17.31l-.7-3v0c-.08-.27-.51-.31-.73-.12L5.44,16l1-3a.37.37,0,0,0,0-.23A.48.48,0,0,0,6,12.48l-2.68.08,2.31-1.77a.42.42,0,0,0,.07-.64L3.43,8.32h0l2.66.09a.46.46,0,0,0,.48-.34.38.38,0,0,0,0-.15Z"/><path class="cls-1" d="M6.81,6.22,8.37,7.64a.32.32,0,0,0,.17.09c.12,0,.3-.15.34-.28l.67-2.2L10,7.55h0c.06.18.42.16.56,0l1.61-1.33-.83,2.27c0,.05,0,.14,0,.18s.23.2.36.19l2-.05L12,10.17c-.13.1-.24.36-.11.46L13.63,12h0l-2-.07c-.15,0-.37.09-.38.22a.17.17,0,0,0,0,.1l.62,2.32-1.57-1.42a.51.51,0,0,0-.16-.09c-.13,0-.31.15-.34.28l-.68,2.2-.49-2.3h0c0-.18-.41-.16-.56,0L6.44,14.57l.83-2.27a.38.38,0,0,0,0-.18c0-.11-.24-.19-.36-.19L4.88,12l1.79-1.32c.13-.1.23-.36.1-.46L5,8.79H5l2,.08c.14,0,.36-.1.38-.23a.34.34,0,0,0,0-.1Z"/><path class="cls-1" d="M7.93,7.54,9,8.54l.11.07c.06,0,.19-.16.21-.23L9.85,6.9l.28,1.62h0c0,.09.31,0,.39-.06l1.13-.88L11,9.15s0,.1,0,.12.2.1.26.1l1.42,0-1.25.87c-.07,0-.21.23-.14.29l1.2,1h0l-1.39-.06c-.07,0-.28,0-.28.1s0,0,0,.06l.37,1.62-1.07-1L10,12.14c-.06,0-.19.15-.21.22l-.53,1.48L9,12.23H9c0-.09-.31,0-.39,0l-1.13.88.65-1.55s0-.1,0-.12-.2-.1-.26-.1l-1.42,0,1.25-.87c.07,0,.21-.23.14-.28l-1.2-1h0L8,9.32c.07,0,.28,0,.28-.11s0,0,0-.05Z"/><polygon class="cls-1" points="11.09 8.93 10.58 9.83 11.54 9.84 10.63 10.36 11.3 10.93 10.36 10.88 10.48 11.8 9.85 11.18 9.38 12.11 9.31 11.17 8.43 11.74 8.95 10.83 7.99 10.83 8.89 10.3 8.22 9.73 9.17 9.79 9.05 8.86 9.67 9.48 10.14 8.55 10.21 9.49 11.09 8.93"/></g></g></svg>