<svg xmlns="http://www.w3.org/2000/svg" viewBox="0 0 16.29 17.43"><defs><style>.cls-1{fill:none;stroke:#33c0cc;stroke-miterlimit:10;stroke-width:0.25px;}</style></defs><g id="Layer_2" data-name="Layer 2"><g id="Layer_1-2" data-name="Layer 1"><path class="cls-1" d="M1.36,6.29C4.09,2,9.41,1,13.36.29c1.35-.24,1.7-.2,2,0,3,2.05-3.2,17.43-6,17-1.45-.22-.91-4.51-4-6-2.12-1-4.21.14-5-1S1,6.89,1.36,6.29Z"/><path class="cls-1" d="M2.77,6.32c2.3-3.61,6.77-4.42,10.09-5,1.13-.2,1.43-.17,1.68,0,2.53,1.71-2.69,14.56-5,14.2-1.22-.18-.77-3.77-3.36-5-1.79-.86-3.55.11-4.21-.84S2.46,6.82,2.77,6.32Z"/><path class="cls-1" d="M4.19,6.35c1.85-2.9,5.48-3.55,8.17-4,.92-.16,1.15-.14,1.36,0,2,1.38-2.18,11.7-4.09,11.41-1-.15-.62-3-2.72-4C5.46,9,4,9.79,3.5,9S3.93,6.75,4.19,6.35Z"/><path class="cls-1" d="M5.6,6.38C7,4.19,9.79,3.7,11.85,3.34c.71-.13.89-.11,1.05,0,1.56,1-1.67,8.83-3.13,8.61-.76-.11-.48-2.29-2.09-3-1.11-.52-2.2.07-2.6-.51S5.4,6.68,5.6,6.38Z"/><path class="cls-1" d="M7,6.41C8,4.92,9.92,4.6,11.35,4.35c.49-.08.61-.07.72,0,1.09.7-1.15,6-2.17,5.82-.52-.08-.33-1.54-1.44-2.05-.77-.35-1.53,0-1.81-.35S6.87,6.61,7,6.41Z"/></g></g></svg>