<svg xmlns="http://www.w3.org/2000/svg" viewBox="0 0 31.17 29.4"><defs><style>.cls-1,.cls-2{fill:none;stroke-miterlimit:10;stroke-width:0.25px;}.cls-1{stroke:#63c9d9;}.cls-2{stroke:#33c0cc;}</style></defs><g id="Layer_2" data-name="Layer 2"><g id="Layer_1-2" data-name="Layer 1"><path class="cls-1" d="M16.3,4.3l4.12-2.16A3,3,0,0,1,24.9,5.08L24,10.14a2.73,2.73,0,0,0,.81,2.43l3.83,3.71A2.8,2.8,0,0,1,27,21.07l-5,.72a3,3,0,0,0-2.29,1.61l-2.1,4.23a3.13,3.13,0,0,1-5.51,0L10,23.4a3,3,0,0,0-2.29-1.61l-5-.72A2.8,2.8,0,0,1,1,16.28l3.83-3.71a2.7,2.7,0,0,0,.81-2.43L4.75,5.08A3,3,0,0,1,9.23,2.14L13.35,4.3A3.2,3.2,0,0,0,16.3,4.3Z"/><path class="cls-1" d="M24.79,5.38,24.53,10a10.7,10.7,0,0,0,.89,2.7l2.95,3.68a2.75,2.75,0,0,1-1.64,4.52l-4.38,1.21a9.5,9.5,0,0,0-2.54,1.73l-2.35,3.5a3.09,3.09,0,0,1-5.21,0L9.89,23.76A10.12,10.12,0,0,0,7.38,22l-4.3-1.14a2.77,2.77,0,0,1-1.61-4.54l3-3.69a9.6,9.6,0,0,0,.93-2.68L5.27,5.34C5,3.24,7.47,1.63,9.5,2.57l4,1.42A9.06,9.06,0,0,0,16.7,4l3.85-1.46A3,3,0,0,1,24.79,5.38Z"/><path class="cls-1" d="M24.67,5.67,25,9.78a9.53,9.53,0,0,1,1,3l2.08,3.65a2.73,2.73,0,0,1-1.56,4.24l-3.77,1.71A17.52,17.52,0,0,1,20,24.21L17.34,27a3.1,3.1,0,0,1-4.91,0L9.8,24.12a13.34,13.34,0,0,1-2.73-2L3.46,20.58A2.77,2.77,0,0,1,2,16.28l2.22-3.67a11,11,0,0,1,1-2.94L5.78,5.6c-.1-1.85,2.16-3.33,4-2.6l3.8.69a19.57,19.57,0,0,1,3.52.08L20.68,3A3,3,0,0,1,24.67,5.67Z"/><path class="cls-1" d="M24.56,6l1,3.63a4.28,4.28,0,0,1,1,3.25l1.2,3.62a2.8,2.8,0,0,1-1.48,4l-3.17,2.19a5.73,5.73,0,0,1-3,2l-2.85,2a3.21,3.21,0,0,1-4.62,0l-2.9-2.14a5.22,5.22,0,0,1-3-2.16l-2.92-2a2.85,2.85,0,0,1-1.38-4l1.43-3.64a4.55,4.55,0,0,1,1.16-3.2L6.3,5.86A3,3,0,0,1,10,3.43l3.66-.05a6.35,6.35,0,0,1,3.79.12l3.33-.07A3.13,3.13,0,0,1,24.56,6Z"/><path class="cls-1" d="M24.44,6.27,26,9.41A3.28,3.28,0,0,1,27.15,13l.31,3.58a2.94,2.94,0,0,1-1.4,3.71l-2.55,2.69A4,4,0,0,1,20.22,25l-3.11,1.29a3.45,3.45,0,0,1-4.33,0L9.63,24.84A3.78,3.78,0,0,1,6.45,22.5L4.22,20.09A3.07,3.07,0,0,1,3,16.28l.62-3.62A3.35,3.35,0,0,1,4.87,9.21L6.81,6.12A3.17,3.17,0,0,1,10.3,3.86l3.5-.78a4.28,4.28,0,0,1,4.07.16l3.07.62A3.4,3.4,0,0,1,24.44,6.27Z"/><path class="cls-1" d="M24.33,6.57l2.2,2.66a2.89,2.89,0,0,1,1.19,3.82l-.56,3.54A3.38,3.38,0,0,1,25.84,20L23.9,23.21a3.42,3.42,0,0,1-3.55,2.22L17,26a4,4,0,0,1-4,0L9.54,25.2a3.23,3.23,0,0,1-3.39-2.52L4.6,19.84a3.61,3.61,0,0,1-1.15-3.57l-.18-3.59A3,3,0,0,1,4.68,9l2.65-2.6a3.59,3.59,0,0,1,3.24-2.08l3.35-1.52a3.6,3.6,0,0,1,4.34.2l2.8,1.32A4.05,4.05,0,0,1,24.33,6.57Z"/><path class="cls-1" d="M24.22,6.86,27,9.05a2.74,2.74,0,0,1,1.28,4.09l-1.44,3.52a4.56,4.56,0,0,1-1.24,3.17L24.28,23.5a3.14,3.14,0,0,1-3.8,2.34l-3.6-.17a5.59,5.59,0,0,1-3.74-.07l-3.69,0c-1.68.42-3.7-1.09-3.61-2.7L5,19.6a5.14,5.14,0,0,1-1-3.33L3,12.7a2.79,2.79,0,0,1,1.53-4L7.84,6.63a4.84,4.84,0,0,1,3-1.91L14,2.47a3.3,3.3,0,0,1,4.62.24l2.54,2A5.93,5.93,0,0,1,24.22,6.86Z"/><path class="cls-1" d="M24.1,7.16l3.42,1.71a2.72,2.72,0,0,1,1.36,4.37l-2.32,3.48a11.21,11.21,0,0,1-1.16,2.9l-.73,4.17a3,3,0,0,1-4.05,2.46l-3.86-.91a14.27,14.27,0,0,1-3.45-.08l-3.94.66c-1.9.63-4.1-1-3.84-2.88l-.17-3.68a16.05,16.05,0,0,1-.92-3.09L2.65,12.73A2.75,2.75,0,0,1,4.3,8.51L8.36,6.89a11,11,0,0,1,2.75-1.75l3-3a3.17,3.17,0,0,1,4.9.28l2.28,2.71A19,19,0,0,1,24.1,7.16Z"/><path class="cls-1" d="M24,7.46l4,1.23a2.73,2.73,0,0,1,1.43,4.64l-3.19,3.45a9.66,9.66,0,0,0-1.08,2.64l-.13,4.65a3,3,0,0,1-4.3,2.58L16.65,25a10.78,10.78,0,0,0-3.16-.08L9.28,26.28c-2.11.85-4.5-1-4.06-3.06l.53-4.11a8.16,8.16,0,0,0-.82-2.84L2.35,12.75A2.76,2.76,0,0,1,4.11,8.27L8.87,7.15a11.92,11.92,0,0,0,2.51-1.58l2.88-3.71a3.11,3.11,0,0,1,5.17.32l2,3.4A8.44,8.44,0,0,0,24,7.46Z"/><path class="cls-1" d="M23.87,7.76l4.65.75A2.79,2.79,0,0,1,30,13.43L26,16.85a2.75,2.75,0,0,0-1,2.36l.49,5.15a3,3,0,0,1-4.55,2.7l-4.36-2.38a3.23,3.23,0,0,0-2.86-.09L9.19,26.64c-2.31,1.06-4.9-.9-4.27-3.24l1.21-4.53a2.73,2.73,0,0,0-.7-2.6L2,12.77A2.8,2.8,0,0,1,3.92,8l5.47-.63A3,3,0,0,0,11.65,6l2.72-4.45a3.13,3.13,0,0,1,5.45.36L21.58,6A3,3,0,0,0,23.87,7.76Z"/><path class="cls-2" d="M16.21,7.65l.67,1.76A.87.87,0,0,0,18,9.86l1.81-.8a.81.81,0,0,1,1.12,1l-.85,1.69a.77.77,0,0,0,.48,1.09l1.88.62a.77.77,0,0,1,0,1.49l-1.88.63a.76.76,0,0,0-.48,1.08L21,18.4a.82.82,0,0,1-1.12,1.06L18,18.65a.87.87,0,0,0-1.16.45l-.67,1.76a.87.87,0,0,1-1.6,0l-.67-1.76a.86.86,0,0,0-1.16-.45l-1.8.81A.82.82,0,0,1,9.85,18.4l.86-1.69a.78.78,0,0,0-.48-1.08L8.34,15a.77.77,0,0,1,0-1.49l1.89-.62a.79.79,0,0,0,.48-1.09l-.86-1.69a.82.82,0,0,1,1.13-1l1.8.8a.86.86,0,0,0,1.16-.45l.67-1.76A.87.87,0,0,1,16.21,7.65Z"/><path class="cls-2" d="M19.7,8.89c.48-.21.82.84.67,1.32-.05.15-.47,1.42-.3,1.42-.14.29.66.68,1,.74s1.63.74,1.42.89c.5.16-.05,1.13-.52,1.38-.15.07-1.4.69-1.29.8-.31.11,0,.92.14,1.18s.6,1.6.34,1.57c.23.44-.91.76-1.41.62-.17,0-1.52-.43-1.53-.28-.3-.13-.72.62-.78.93s-.79,1.52-.95,1.33c-.18.47-1.22-.06-1.48-.49-.08-.14-.74-1.31-.86-1.2-.11-.3-1-.05-1.26.13s-1.71.56-1.68.31c-.48.21-.82-.84-.67-1.32.05-.15.47-1.42.3-1.42.14-.28-.66-.68-1-.74s-1.63-.73-1.42-.89c-.5-.16.06-1.13.52-1.37.15-.08,1.41-.7,1.29-.81.31-.11,0-.92-.14-1.17s-.6-1.6-.34-1.57c-.22-.45.91-.77,1.42-.63.16,0,1.51.43,1.52.28.3.13.72-.62.78-.92s.79-1.53,1-1.34c.17-.46,1.22.06,1.47.49.08.14.74,1.32.86,1.21.12.29,1,0,1.26-.14S19.73,8.65,19.7,8.89Z"/><path class="cls-2" d="M19.55,8.72c.24-.1.29,1.35.22,1.59s-.08,1.15.26,1.16c-.07.14,1.33.35,1.49.38.53.09,1.39.85,1,1.15.25.09-.82,1.15-1,1.27s-.92.76-.69,1c-.16.05.67,1.13.76,1.26.31.41.34,1.51-.19,1.45.12.22-1.44.27-1.69.2s-1.23-.07-1.24.24c-.15-.06-.38,1.25-.41,1.4-.1.49-.91,1.29-1.23.9-.09.24-1.23-.76-1.36-1s-.82-.86-1.06-.64c-.05-.15-1.21.62-1.35.71-.43.28-1.61.32-1.55-.17-.24.1-.29-1.35-.21-1.59s.07-1.15-.27-1.16c.08-.14-1.33-.35-1.49-.38-.52-.09-1.38-.85-1-1.15-.25-.09.81-1.15,1.05-1.27s.92-.76.68-1c.16-.05-.67-1.13-.76-1.26-.3-.41-.34-1.51.19-1.45-.12-.22,1.45-.27,1.7-.2s1.23.07,1.23-.25c.15.07.39-1.24.42-1.39.09-.49.9-1.29,1.23-.9.09-.24,1.22.76,1.35,1s.82.86,1.06.64c.06.15,1.21-.62,1.35-.71C18.43,8.27,19.62,8.23,19.55,8.72Z"/><path class="cls-2" d="M19.4,8.56l-.24,1.85a.81.81,0,0,0,.83.89l2,0a.78.78,0,0,1,.5,1.41L20.91,13.9a.76.76,0,0,0-.08,1.17l1.38,1.35a.79.79,0,0,1-.71,1.33l-2-.22a.82.82,0,0,0-.94.77l0,1.86a.86.86,0,0,1-1.52.48l-1.23-1.48a.89.89,0,0,0-1.25-.08l-1.44,1.3a.85.85,0,0,1-1.43-.67l.24-1.86a.81.81,0,0,0-.82-.88l-2,0a.78.78,0,0,1-.51-1.41l1.58-1.15a.77.77,0,0,0,.09-1.18L8.85,11.85a.8.8,0,0,1,.71-1.34l2,.23A.83.83,0,0,0,12.5,10l0-1.87a.85.85,0,0,1,1.51-.47L15.28,9.1a.9.9,0,0,0,1.26.09L18,7.89A.84.84,0,0,1,19.4,8.56Z"/></g></g></svg>